<mxfile host="app.diagrams.net" modified="2020-06-19T07:00:00.770Z" agent="5.0 (Macintosh; Intel Mac OS X 10_15_4) AppleWebKit/537.36 (KHTML, like Gecko) Chrome/83.0.4103.97 Safari/537.36" etag="DVw3zBJeGw6vrPEJ6ROi" version="13.1.11" type="github">
  <diagram id="QSgkhsJ8-CCZ3Fh4raby" name="第 1 页">
    <mxGraphModel dx="1351" dy="2013" grid="1" gridSize="10" guides="1" tooltips="1" connect="1" arrows="1" fold="1" page="1" pageScale="1" pageWidth="827" pageHeight="1169" math="0" shadow="0">
      <root>
        <mxCell id="0" />
        <mxCell id="1" parent="0" />
        <mxCell id="DjlL4Gagi0AbFThIr3c9-64" value="" style="ellipse;whiteSpace=wrap;html=1;aspect=fixed;shadow=1;glass=0;comic=1;strokeWidth=2;gradientColor=#ffffff;" parent="1" vertex="1">
          <mxGeometry x="245" y="820" width="90" height="90" as="geometry" />
        </mxCell>
        <mxCell id="DjlL4Gagi0AbFThIr3c9-20" value="" style="edgeStyle=orthogonalEdgeStyle;rounded=0;orthogonalLoop=1;jettySize=auto;html=1;" parent="1" source="DjlL4Gagi0AbFThIr3c9-1" edge="1">
          <mxGeometry relative="1" as="geometry">
            <mxPoint x="290" y="910" as="targetPoint" />
          </mxGeometry>
        </mxCell>
        <mxCell id="DjlL4Gagi0AbFThIr3c9-21" value="DMA&amp;nbsp;" style="edgeLabel;html=1;align=center;verticalAlign=middle;resizable=0;points=[];" parent="DjlL4Gagi0AbFThIr3c9-20" vertex="1" connectable="0">
          <mxGeometry x="-0.04" y="-1" relative="1" as="geometry">
            <mxPoint as="offset" />
          </mxGeometry>
        </mxCell>
        <mxCell id="DjlL4Gagi0AbFThIr3c9-1" value="NIC&lt;br&gt;queue" style="shape=process;whiteSpace=wrap;html=1;backgroundOutline=1;rotation=0;shadow=1;rounded=1;glass=0;" parent="1" vertex="1">
          <mxGeometry x="230" y="970" width="120" height="30" as="geometry" />
        </mxCell>
        <mxCell id="DjlL4Gagi0AbFThIr3c9-2" value="ring buffer" style="ellipse;whiteSpace=wrap;html=1;aspect=fixed;shadow=1;" parent="1" vertex="1">
          <mxGeometry x="250" y="825" width="80" height="80" as="geometry" />
        </mxCell>
        <mxCell id="DjlL4Gagi0AbFThIr3c9-5" value="ISR" style="shape=step;perimeter=stepPerimeter;whiteSpace=wrap;html=1;fixedSize=1;shadow=1;" parent="1" vertex="1">
          <mxGeometry x="250" y="760" width="80" height="40" as="geometry" />
        </mxCell>
        <mxCell id="DjlL4Gagi0AbFThIr3c9-26" value="" style="edgeStyle=orthogonalEdgeStyle;rounded=0;orthogonalLoop=1;jettySize=auto;html=1;entryX=0.5;entryY=1;entryDx=0;entryDy=0;entryPerimeter=0;" parent="1" source="DjlL4Gagi0AbFThIr3c9-5" target="DjlL4Gagi0AbFThIr3c9-46" edge="1">
          <mxGeometry relative="1" as="geometry">
            <Array as="points">
              <mxPoint x="290" y="700" />
              <mxPoint x="290" y="700" />
            </Array>
          </mxGeometry>
        </mxCell>
        <mxCell id="DjlL4Gagi0AbFThIr3c9-27" value="&lt;b&gt;&lt;i&gt;napi_schedule&lt;/i&gt;&lt;/b&gt;" style="edgeLabel;html=1;align=center;verticalAlign=middle;resizable=0;points=[];" parent="DjlL4Gagi0AbFThIr3c9-26" vertex="1" connectable="0">
          <mxGeometry y="1" relative="1" as="geometry">
            <mxPoint x="1" y="-20" as="offset" />
          </mxGeometry>
        </mxCell>
        <mxCell id="jYkc-1DQ9nDgup6ayknT-70" value="①" style="edgeLabel;html=1;align=center;verticalAlign=middle;resizable=0;points=[];" vertex="1" connectable="0" parent="DjlL4Gagi0AbFThIr3c9-26">
          <mxGeometry x="0.5" y="-39" relative="1" as="geometry">
            <mxPoint x="-38" y="20" as="offset" />
          </mxGeometry>
        </mxCell>
        <mxCell id="DjlL4Gagi0AbFThIr3c9-10" value="napi" style="shape=card;whiteSpace=wrap;html=1;align=center;gradientColor=none;shadow=1;rounded=0;comic=0;" parent="1" vertex="1">
          <mxGeometry x="245" y="610" width="45" height="70" as="geometry" />
        </mxCell>
        <mxCell id="DjlL4Gagi0AbFThIr3c9-17" value="&lt;span&gt;softnet_data&lt;/span&gt;" style="shape=cylinder;whiteSpace=wrap;html=1;boundedLbl=1;backgroundOutline=1;shadow=1;" parent="1" vertex="1">
          <mxGeometry x="230" y="530" width="120" height="70" as="geometry" />
        </mxCell>
        <mxCell id="DjlL4Gagi0AbFThIr3c9-24" value="" style="endArrow=none;html=1;exitX=0;exitY=0.5;exitDx=0;exitDy=0;" parent="1" source="DjlL4Gagi0AbFThIr3c9-1" edge="1">
          <mxGeometry width="50" height="50" relative="1" as="geometry">
            <mxPoint x="420" y="930" as="sourcePoint" />
            <mxPoint x="270" y="780" as="targetPoint" />
            <Array as="points">
              <mxPoint x="170" y="985" />
              <mxPoint x="170" y="780" />
            </Array>
          </mxGeometry>
        </mxCell>
        <mxCell id="DjlL4Gagi0AbFThIr3c9-25" value="IRQ" style="edgeLabel;html=1;align=center;verticalAlign=middle;resizable=0;points=[];" parent="DjlL4Gagi0AbFThIr3c9-24" vertex="1" connectable="0">
          <mxGeometry x="-0.0575" y="-2" relative="1" as="geometry">
            <mxPoint as="offset" />
          </mxGeometry>
        </mxCell>
        <mxCell id="DjlL4Gagi0AbFThIr3c9-28" value="NET_RX_SOFTIRQ" style="shape=step;perimeter=stepPerimeter;whiteSpace=wrap;html=1;fixedSize=1;shadow=1;align=center;fontStyle=3" parent="1" vertex="1">
          <mxGeometry x="380" y="760" width="150" height="40" as="geometry" />
        </mxCell>
        <mxCell id="DjlL4Gagi0AbFThIr3c9-52" value="GRO" style="shape=step;perimeter=stepPerimeter;whiteSpace=wrap;html=1;fixedSize=1;size=-10;shadow=1;" parent="1" vertex="1">
          <mxGeometry x="550" y="760" width="150" height="40" as="geometry" />
        </mxCell>
        <mxCell id="DjlL4Gagi0AbFThIr3c9-30" value="" style="endArrow=none;html=1;dashed=1;startArrow=none;startFill=0;" parent="1" edge="1">
          <mxGeometry width="50" height="50" relative="1" as="geometry">
            <mxPoint x="290" y="740" as="sourcePoint" />
            <mxPoint x="400" y="780" as="targetPoint" />
            <Array as="points">
              <mxPoint x="360" y="740" />
              <mxPoint x="370" y="780" />
            </Array>
          </mxGeometry>
        </mxCell>
        <mxCell id="jYkc-1DQ9nDgup6ayknT-71" value="②" style="edgeLabel;html=1;align=center;verticalAlign=middle;resizable=0;points=[];" vertex="1" connectable="0" parent="DjlL4Gagi0AbFThIr3c9-30">
          <mxGeometry x="-0.2286" y="2" relative="1" as="geometry">
            <mxPoint x="-31.5" as="offset" />
          </mxGeometry>
        </mxCell>
        <mxCell id="DjlL4Gagi0AbFThIr3c9-32" value="" style="endArrow=classic;html=1;exitX=0.5;exitY=0;exitDx=0;exitDy=0;entryX=1;entryY=0.5;entryDx=0;entryDy=0;" parent="1" source="DjlL4Gagi0AbFThIr3c9-28" target="DjlL4Gagi0AbFThIr3c9-17" edge="1">
          <mxGeometry width="50" height="50" relative="1" as="geometry">
            <mxPoint x="330" y="880" as="sourcePoint" />
            <mxPoint x="380" y="830" as="targetPoint" />
            <Array as="points">
              <mxPoint x="455" y="565" />
            </Array>
          </mxGeometry>
        </mxCell>
        <mxCell id="DjlL4Gagi0AbFThIr3c9-33" value="&lt;b&gt;&lt;i&gt;net_rx_action&lt;/i&gt;&lt;/b&gt;" style="edgeLabel;html=1;align=center;verticalAlign=middle;resizable=0;points=[];" parent="DjlL4Gagi0AbFThIr3c9-32" vertex="1" connectable="0">
          <mxGeometry x="0.0333" relative="1" as="geometry">
            <mxPoint y="55" as="offset" />
          </mxGeometry>
        </mxCell>
        <mxCell id="jYkc-1DQ9nDgup6ayknT-73" value="③" style="edgeLabel;html=1;align=center;verticalAlign=middle;resizable=0;points=[];" vertex="1" connectable="0" parent="DjlL4Gagi0AbFThIr3c9-32">
          <mxGeometry x="-0.52" y="-1" relative="1" as="geometry">
            <mxPoint as="offset" />
          </mxGeometry>
        </mxCell>
        <mxCell id="DjlL4Gagi0AbFThIr3c9-35" value="napi" style="shape=card;whiteSpace=wrap;html=1;align=center;dashed=1;dashPattern=1 1;gradientColor=none;shadow=1;rounded=0;comic=0;" parent="1" vertex="1">
          <mxGeometry x="440" y="830" width="45" height="70" as="geometry" />
        </mxCell>
        <mxCell id="DjlL4Gagi0AbFThIr3c9-36" value="" style="endArrow=classic;html=1;entryX=0;entryY=0;entryDx=15;entryDy=15;entryPerimeter=0;exitX=0.5;exitY=1;exitDx=0;exitDy=0;" parent="1" source="DjlL4Gagi0AbFThIr3c9-28" target="DjlL4Gagi0AbFThIr3c9-35" edge="1">
          <mxGeometry width="50" height="50" relative="1" as="geometry">
            <mxPoint x="360" y="850" as="sourcePoint" />
            <mxPoint x="410" y="800" as="targetPoint" />
          </mxGeometry>
        </mxCell>
        <mxCell id="DjlL4Gagi0AbFThIr3c9-42" value="skb" style="rounded=1;whiteSpace=wrap;html=1;shadow=1;fontStyle=1;glass=0;comic=0;fillColor=#f5f5f5;strokeColor=#666666;gradientColor=#b3b3b3;" parent="1" vertex="1">
          <mxGeometry x="423.75" y="920" width="77.5" height="40" as="geometry" />
        </mxCell>
        <mxCell id="DjlL4Gagi0AbFThIr3c9-44" value="poll" style="endArrow=classic;html=1;exitX=0;exitY=0;exitDx=0;exitDy=30;exitPerimeter=0;" parent="1" source="DjlL4Gagi0AbFThIr3c9-35" edge="1">
          <mxGeometry width="50" height="50" relative="1" as="geometry">
            <mxPoint x="350" y="950" as="sourcePoint" />
            <mxPoint x="424" y="930" as="targetPoint" />
            <Array as="points">
              <mxPoint x="370" y="850" />
              <mxPoint x="350" y="865" />
              <mxPoint x="360" y="920" />
            </Array>
          </mxGeometry>
        </mxCell>
        <mxCell id="DjlL4Gagi0AbFThIr3c9-46" value="napi" style="shape=card;whiteSpace=wrap;html=1;align=center;dashed=1;dashPattern=1 1;gradientColor=none;shadow=1;rounded=0;comic=0;" parent="1" vertex="1">
          <mxGeometry x="267.5" y="610" width="45" height="70" as="geometry" />
        </mxCell>
        <mxCell id="DjlL4Gagi0AbFThIr3c9-49" value="" style="endArrow=none;html=1;entryX=0;entryY=0;entryDx=15;entryDy=15;entryPerimeter=0;exitX=0.15;exitY=0.95;exitDx=0;exitDy=0;exitPerimeter=0;" parent="1" source="DjlL4Gagi0AbFThIr3c9-17" target="DjlL4Gagi0AbFThIr3c9-10" edge="1">
          <mxGeometry width="50" height="50" relative="1" as="geometry">
            <mxPoint x="350" y="870" as="sourcePoint" />
            <mxPoint x="400" y="820" as="targetPoint" />
            <Array as="points">
              <mxPoint x="248" y="620" />
            </Array>
          </mxGeometry>
        </mxCell>
        <mxCell id="DjlL4Gagi0AbFThIr3c9-55" value="" style="endArrow=classic;html=1;exitX=1;exitY=0.5;exitDx=0;exitDy=0;entryX=0.5;entryY=1;entryDx=0;entryDy=0;" parent="1" source="DjlL4Gagi0AbFThIr3c9-42" target="DjlL4Gagi0AbFThIr3c9-52" edge="1">
          <mxGeometry width="50" height="50" relative="1" as="geometry">
            <mxPoint x="490" y="850" as="sourcePoint" />
            <mxPoint x="540" y="800" as="targetPoint" />
            <Array as="points">
              <mxPoint x="560" y="950" />
              <mxPoint x="618" y="880" />
            </Array>
          </mxGeometry>
        </mxCell>
        <mxCell id="DjlL4Gagi0AbFThIr3c9-56" value="&lt;b&gt;&lt;i&gt;napi_gro_receive&lt;/i&gt;&lt;/b&gt;" style="edgeLabel;html=1;align=center;verticalAlign=middle;resizable=0;points=[];" parent="DjlL4Gagi0AbFThIr3c9-55" vertex="1" connectable="0">
          <mxGeometry x="0.0897" y="-1" relative="1" as="geometry">
            <mxPoint x="-1" as="offset" />
          </mxGeometry>
        </mxCell>
        <mxCell id="jYkc-1DQ9nDgup6ayknT-74" value="④" style="edgeLabel;html=1;align=center;verticalAlign=middle;resizable=0;points=[];" vertex="1" connectable="0" parent="DjlL4Gagi0AbFThIr3c9-55">
          <mxGeometry x="-0.2329" y="-2" relative="1" as="geometry">
            <mxPoint as="offset" />
          </mxGeometry>
        </mxCell>
        <mxCell id="DjlL4Gagi0AbFThIr3c9-58" value="" style="endArrow=classic;html=1;entryX=1;entryY=0.5;entryDx=0;entryDy=0;entryPerimeter=0;" parent="1" target="DjlL4Gagi0AbFThIr3c9-46" edge="1">
          <mxGeometry width="50" height="50" relative="1" as="geometry">
            <mxPoint x="350" y="570" as="sourcePoint" />
            <mxPoint x="480" y="850" as="targetPoint" />
            <Array as="points">
              <mxPoint x="380" y="600" />
              <mxPoint x="370" y="640" />
            </Array>
          </mxGeometry>
        </mxCell>
        <mxCell id="DjlL4Gagi0AbFThIr3c9-65" value="poll_list" style="edgeLabel;html=1;align=center;verticalAlign=middle;resizable=0;points=[];" parent="DjlL4Gagi0AbFThIr3c9-58" vertex="1" connectable="0">
          <mxGeometry x="-0.0498" y="-5" relative="1" as="geometry">
            <mxPoint as="offset" />
          </mxGeometry>
        </mxCell>
        <mxCell id="DjlL4Gagi0AbFThIr3c9-59" value="skb" style="rounded=1;whiteSpace=wrap;html=1;shadow=1;fontStyle=1;glass=0;comic=0;fillColor=#f5f5f5;strokeColor=#666666;gradientColor=#b3b3b3;" parent="1" vertex="1">
          <mxGeometry x="433.75" y="930" width="77.5" height="40" as="geometry" />
        </mxCell>
        <mxCell id="DjlL4Gagi0AbFThIr3c9-61" value="skb" style="rounded=1;whiteSpace=wrap;html=1;shadow=1;fontStyle=1;glass=0;comic=0;fillColor=#f5f5f5;strokeColor=#666666;gradientColor=#b3b3b3;" parent="1" vertex="1">
          <mxGeometry x="443.75" y="940" width="77.5" height="40" as="geometry" />
        </mxCell>
        <mxCell id="DjlL4Gagi0AbFThIr3c9-62" value="&lt;b&gt;skb&lt;/b&gt;" style="rounded=1;whiteSpace=wrap;html=1;shadow=1;glass=0;strokeWidth=2;comic=0;fillColor=#f5f5f5;strokeColor=#666666;gradientColor=#b3b3b3;" parent="1" vertex="1">
          <mxGeometry x="586.25" y="640" width="77.5" height="40" as="geometry" />
        </mxCell>
        <mxCell id="DjlL4Gagi0AbFThIr3c9-63" value="merge" style="endArrow=classic;html=1;entryX=0.5;entryY=1;entryDx=0;entryDy=0;exitX=0.5;exitY=0;exitDx=0;exitDy=0;" parent="1" source="DjlL4Gagi0AbFThIr3c9-52" target="DjlL4Gagi0AbFThIr3c9-62" edge="1">
          <mxGeometry width="50" height="50" relative="1" as="geometry">
            <mxPoint x="520" y="1010" as="sourcePoint" />
            <mxPoint x="570" y="960" as="targetPoint" />
            <Array as="points">
              <mxPoint x="625" y="750" />
            </Array>
          </mxGeometry>
        </mxCell>
        <mxCell id="DjlL4Gagi0AbFThIr3c9-70" value="" style="endArrow=classic;html=1;entryX=0.5;entryY=1;entryDx=0;entryDy=0;exitX=0.5;exitY=0;exitDx=0;exitDy=0;" parent="1" source="DjlL4Gagi0AbFThIr3c9-62" target="NEUN2svOgOYwnKvYQtpy-1" edge="1">
          <mxGeometry width="50" height="50" relative="1" as="geometry">
            <mxPoint x="530" y="630" as="sourcePoint" />
            <mxPoint x="625" y="490" as="targetPoint" />
          </mxGeometry>
        </mxCell>
        <mxCell id="DjlL4Gagi0AbFThIr3c9-72" value="tcp_protocol" style="shape=step;perimeter=stepPerimeter;whiteSpace=wrap;html=1;fixedSize=1;size=-10;rounded=1;shadow=1;" parent="1" vertex="1">
          <mxGeometry x="230" y="-120" width="150" height="40" as="geometry" />
        </mxCell>
        <mxCell id="NEUN2svOgOYwnKvYQtpy-1" value="" style="shape=step;perimeter=stepPerimeter;whiteSpace=wrap;html=1;fixedSize=1;size=-10;shadow=1;rounded=1;" parent="1" vertex="1">
          <mxGeometry x="514.63" y="310" width="220" height="250" as="geometry" />
        </mxCell>
        <mxCell id="jYkc-1DQ9nDgup6ayknT-2" value="&lt;span&gt;&lt;b&gt;netif_receive_skb&lt;/b&gt;&lt;/span&gt;" style="text;html=1;align=center;verticalAlign=middle;resizable=0;points=[];autosize=1;" vertex="1" parent="1">
          <mxGeometry x="511.5" y="310" width="120" height="20" as="geometry" />
        </mxCell>
        <mxCell id="jYkc-1DQ9nDgup6ayknT-6" value="L3 proto handler" style="rounded=1;whiteSpace=wrap;html=1;align=center;fontStyle=0;dashed=1;shadow=1;glass=0;" vertex="1" parent="1">
          <mxGeometry x="530" y="347.5" width="97.75" height="25" as="geometry" />
        </mxCell>
        <mxCell id="NEUN2svOgOYwnKvYQtpy-11" value="NF ingress" style="rounded=1;whiteSpace=wrap;html=1;align=center;fontStyle=0;dashed=1;shadow=1;glass=0;" parent="1" vertex="1">
          <mxGeometry x="528.87" y="402.5" width="100" height="25" as="geometry" />
        </mxCell>
        <mxCell id="NEUN2svOgOYwnKvYQtpy-5" value="packet tap" style="rounded=1;whiteSpace=wrap;html=1;align=center;fontStyle=0;dashed=1;shadow=1;glass=0;" parent="1" vertex="1">
          <mxGeometry x="531.5" y="460.5" width="100" height="25" as="geometry" />
        </mxCell>
        <mxCell id="jYkc-1DQ9nDgup6ayknT-13" value="generic XDP" style="rounded=1;whiteSpace=wrap;html=1;align=center;fontStyle=0;dashed=1;shadow=1;glass=0;" vertex="1" parent="1">
          <mxGeometry x="531.5" y="520" width="98.5" height="25" as="geometry" />
        </mxCell>
        <mxCell id="jYkc-1DQ9nDgup6ayknT-26" value="skb" style="rounded=1;whiteSpace=wrap;html=1;shadow=1;fontStyle=1;glass=0;comic=0;fillColor=#f5f5f5;strokeColor=#666666;gradientColor=#b3b3b3;" vertex="1" parent="1">
          <mxGeometry x="873.25" y="656" width="77.5" height="40" as="geometry" />
        </mxCell>
        <mxCell id="jYkc-1DQ9nDgup6ayknT-27" value="skb" style="rounded=1;whiteSpace=wrap;html=1;shadow=1;fontStyle=1;glass=0;comic=0;fillColor=#f5f5f5;strokeColor=#666666;gradientColor=#b3b3b3;" vertex="1" parent="1">
          <mxGeometry x="883.25" y="666" width="77.5" height="40" as="geometry" />
        </mxCell>
        <mxCell id="jYkc-1DQ9nDgup6ayknT-28" value="skb" style="rounded=1;whiteSpace=wrap;html=1;shadow=1;fontStyle=1;glass=0;comic=0;fillColor=#f5f5f5;strokeColor=#666666;gradientColor=#b3b3b3;" vertex="1" parent="1">
          <mxGeometry x="893.25" y="676" width="77.5" height="40" as="geometry" />
        </mxCell>
        <mxCell id="jYkc-1DQ9nDgup6ayknT-29" value="" style="endArrow=classic;html=1;entryX=0;entryY=0.25;entryDx=0;entryDy=0;exitX=0;exitY=0.5;exitDx=0;exitDy=0;" edge="1" parent="1" source="jYkc-1DQ9nDgup6ayknT-32" target="jYkc-1DQ9nDgup6ayknT-26">
          <mxGeometry width="50" height="50" relative="1" as="geometry">
            <mxPoint x="804" y="530" as="sourcePoint" />
            <mxPoint x="945.75" y="861" as="targetPoint" />
            <Array as="points">
              <mxPoint x="830" y="620" />
              <mxPoint x="830" y="666" />
            </Array>
          </mxGeometry>
        </mxCell>
        <mxCell id="jYkc-1DQ9nDgup6ayknT-30" value="input_pkt_queue" style="edgeLabel;html=1;align=center;verticalAlign=middle;resizable=0;points=[];fontStyle=3" vertex="1" connectable="0" parent="jYkc-1DQ9nDgup6ayknT-29">
          <mxGeometry x="-0.0498" y="-5" relative="1" as="geometry">
            <mxPoint x="38.25" y="-16.939999999999998" as="offset" />
          </mxGeometry>
        </mxCell>
        <mxCell id="jYkc-1DQ9nDgup6ayknT-32" value="&lt;span&gt;softnet_data&lt;/span&gt;" style="shape=cylinder;whiteSpace=wrap;html=1;boundedLbl=1;backgroundOutline=1;shadow=1;" vertex="1" parent="1">
          <mxGeometry x="850.75" y="530" width="120" height="70" as="geometry" />
        </mxCell>
        <mxCell id="jYkc-1DQ9nDgup6ayknT-33" value="napi&lt;br&gt;&lt;i&gt;&lt;u&gt;backlog&lt;/u&gt;&lt;/i&gt;" style="shape=card;whiteSpace=wrap;html=1;align=center;dashed=1;dashPattern=1 1;gradientColor=none;shadow=1;rounded=0;comic=0;" vertex="1" parent="1">
          <mxGeometry x="899.5" y="750" width="45" height="70" as="geometry" />
        </mxCell>
        <mxCell id="jYkc-1DQ9nDgup6ayknT-35" value="" style="endArrow=classic;html=1;entryX=1;entryY=0.5;entryDx=0;entryDy=0;entryPerimeter=0;" edge="1" target="jYkc-1DQ9nDgup6ayknT-33" parent="1">
          <mxGeometry width="50" height="50" relative="1" as="geometry">
            <mxPoint x="970.75" y="570" as="sourcePoint" />
            <mxPoint x="1100.75" y="850" as="targetPoint" />
            <Array as="points">
              <mxPoint x="1030" y="610" />
              <mxPoint x="1030" y="710" />
            </Array>
          </mxGeometry>
        </mxCell>
        <mxCell id="jYkc-1DQ9nDgup6ayknT-36" value="poll_list" style="edgeLabel;html=1;align=center;verticalAlign=middle;resizable=0;points=[];" vertex="1" connectable="0" parent="jYkc-1DQ9nDgup6ayknT-35">
          <mxGeometry x="-0.0498" y="-5" relative="1" as="geometry">
            <mxPoint as="offset" />
          </mxGeometry>
        </mxCell>
        <mxCell id="jYkc-1DQ9nDgup6ayknT-37" value="NET_RX_SOFTIRQ" style="shape=step;perimeter=stepPerimeter;whiteSpace=wrap;html=1;fixedSize=1;shadow=1;fontStyle=3" vertex="1" parent="1">
          <mxGeometry x="743" y="840" width="150" height="40" as="geometry" />
        </mxCell>
        <mxCell id="jYkc-1DQ9nDgup6ayknT-39" value="" style="endArrow=classic;html=1;" edge="1" parent="1">
          <mxGeometry width="50" height="50" relative="1" as="geometry">
            <mxPoint x="713" y="510" as="sourcePoint" />
            <mxPoint x="840" y="580" as="targetPoint" />
            <Array as="points">
              <mxPoint x="780" y="560" />
            </Array>
          </mxGeometry>
        </mxCell>
        <mxCell id="jYkc-1DQ9nDgup6ayknT-40" value="&lt;b&gt;&lt;i&gt;enqueue_to_backlog&lt;/i&gt;&lt;/b&gt;" style="edgeLabel;html=1;align=center;verticalAlign=middle;resizable=0;points=[];" vertex="1" connectable="0" parent="jYkc-1DQ9nDgup6ayknT-39">
          <mxGeometry x="-0.0498" y="-5" relative="1" as="geometry">
            <mxPoint x="-14.7" y="-31.58" as="offset" />
          </mxGeometry>
        </mxCell>
        <mxCell id="jYkc-1DQ9nDgup6ayknT-43" value="①" style="edgeLabel;html=1;align=center;verticalAlign=middle;resizable=0;points=[];" vertex="1" connectable="0" parent="jYkc-1DQ9nDgup6ayknT-39">
          <mxGeometry x="0.5601" y="2" relative="1" as="geometry">
            <mxPoint as="offset" />
          </mxGeometry>
        </mxCell>
        <mxCell id="jYkc-1DQ9nDgup6ayknT-42" value="" style="endArrow=none;html=1;endFill=0;" edge="1" parent="1">
          <mxGeometry width="50" height="50" relative="1" as="geometry">
            <mxPoint x="781" y="560" as="sourcePoint" />
            <mxPoint x="781" y="770" as="targetPoint" />
          </mxGeometry>
        </mxCell>
        <mxCell id="jYkc-1DQ9nDgup6ayknT-44" value="②" style="edgeLabel;html=1;align=center;verticalAlign=middle;resizable=0;points=[];" vertex="1" connectable="0" parent="jYkc-1DQ9nDgup6ayknT-42">
          <mxGeometry x="0.39" y="1" relative="1" as="geometry">
            <mxPoint x="-1.65" y="-106" as="offset" />
          </mxGeometry>
        </mxCell>
        <mxCell id="jYkc-1DQ9nDgup6ayknT-45" value="" style="endArrow=classic;html=1;entryX=1;entryY=0.5;entryDx=0;entryDy=0;" edge="1" parent="1">
          <mxGeometry width="50" height="50" relative="1" as="geometry">
            <mxPoint x="893" y="860" as="sourcePoint" />
            <mxPoint x="971" y="562.5" as="targetPoint" />
            <Array as="points">
              <mxPoint x="1076" y="860" />
              <mxPoint x="1076" y="562.5" />
            </Array>
          </mxGeometry>
        </mxCell>
        <mxCell id="jYkc-1DQ9nDgup6ayknT-46" value="&lt;b&gt;&lt;i&gt;net_rx_action&lt;/i&gt;&lt;/b&gt;" style="edgeLabel;html=1;align=center;verticalAlign=middle;resizable=0;points=[];" vertex="1" connectable="0" parent="jYkc-1DQ9nDgup6ayknT-45">
          <mxGeometry x="0.0333" relative="1" as="geometry">
            <mxPoint y="-42" as="offset" />
          </mxGeometry>
        </mxCell>
        <mxCell id="jYkc-1DQ9nDgup6ayknT-68" value="③" style="edgeLabel;html=1;align=center;verticalAlign=middle;resizable=0;points=[];" vertex="1" connectable="0" parent="jYkc-1DQ9nDgup6ayknT-45">
          <mxGeometry x="-0.3783" y="96" relative="1" as="geometry">
            <mxPoint as="offset" />
          </mxGeometry>
        </mxCell>
        <mxCell id="jYkc-1DQ9nDgup6ayknT-62" value="" style="endArrow=classic;html=1;exitX=0;exitY=0;exitDx=15;exitDy=15;exitPerimeter=0;entryX=0;entryY=1;entryDx=0;entryDy=0;" edge="1" parent="1" source="jYkc-1DQ9nDgup6ayknT-33" target="jYkc-1DQ9nDgup6ayknT-28">
          <mxGeometry width="50" height="50" relative="1" as="geometry">
            <mxPoint x="700" y="740" as="sourcePoint" />
            <mxPoint x="750" y="690" as="targetPoint" />
            <Array as="points">
              <mxPoint x="893" y="760" />
            </Array>
          </mxGeometry>
        </mxCell>
        <mxCell id="jYkc-1DQ9nDgup6ayknT-67" value="poll" style="edgeLabel;html=1;align=center;verticalAlign=middle;resizable=0;points=[];" vertex="1" connectable="0" parent="jYkc-1DQ9nDgup6ayknT-62">
          <mxGeometry x="0.2364" y="1" relative="1" as="geometry">
            <mxPoint as="offset" />
          </mxGeometry>
        </mxCell>
        <mxCell id="jYkc-1DQ9nDgup6ayknT-65" value="" style="endArrow=classic;html=1;exitX=0;exitY=0.5;exitDx=0;exitDy=0;dashed=1;" edge="1" parent="1" source="jYkc-1DQ9nDgup6ayknT-27">
          <mxGeometry width="50" height="50" relative="1" as="geometry">
            <mxPoint x="700" y="720" as="sourcePoint" />
            <mxPoint x="630" y="600" as="targetPoint" />
            <Array as="points">
              <mxPoint x="750" y="686" />
              <mxPoint x="710" y="620" />
            </Array>
          </mxGeometry>
        </mxCell>
        <mxCell id="jYkc-1DQ9nDgup6ayknT-66" value="&lt;b&gt;&lt;i&gt;process_backlog&lt;/i&gt;&lt;/b&gt;" style="edgeLabel;html=1;align=center;verticalAlign=middle;resizable=0;points=[];" vertex="1" connectable="0" parent="jYkc-1DQ9nDgup6ayknT-65">
          <mxGeometry x="0.1394" relative="1" as="geometry">
            <mxPoint x="-12.51" y="-1.14" as="offset" />
          </mxGeometry>
        </mxCell>
        <mxCell id="jYkc-1DQ9nDgup6ayknT-69" value="④" style="edgeLabel;html=1;align=center;verticalAlign=middle;resizable=0;points=[];" vertex="1" connectable="0" parent="jYkc-1DQ9nDgup6ayknT-65">
          <mxGeometry x="-0.691" relative="1" as="geometry">
            <mxPoint as="offset" />
          </mxGeometry>
        </mxCell>
        <mxCell id="jYkc-1DQ9nDgup6ayknT-72" value="" style="endArrow=classic;html=1;entryX=0;entryY=0;entryDx=0;entryDy=50;entryPerimeter=0;" edge="1" parent="1" target="jYkc-1DQ9nDgup6ayknT-33">
          <mxGeometry width="50" height="50" relative="1" as="geometry">
            <mxPoint x="779.5" y="770" as="sourcePoint" />
            <mxPoint x="899.5" y="820" as="targetPoint" />
            <Array as="points">
              <mxPoint x="820" y="800" />
            </Array>
          </mxGeometry>
        </mxCell>
        <mxCell id="jYkc-1DQ9nDgup6ayknT-75" value="" style="endArrow=none;html=1;exitX=0.25;exitY=0;exitDx=0;exitDy=0;dashed=1;" edge="1" parent="1" source="jYkc-1DQ9nDgup6ayknT-37">
          <mxGeometry width="50" height="50" relative="1" as="geometry">
            <mxPoint x="630" y="750" as="sourcePoint" />
            <mxPoint x="781" y="770" as="targetPoint" />
          </mxGeometry>
        </mxCell>
        <mxCell id="jYkc-1DQ9nDgup6ayknT-76" value="&lt;b&gt;&lt;i&gt;napi_schedule&lt;/i&gt;&lt;/b&gt;" style="edgeLabel;html=1;align=center;verticalAlign=middle;resizable=0;points=[];" vertex="1" connectable="0" parent="jYkc-1DQ9nDgup6ayknT-75">
          <mxGeometry x="0.6286" relative="1" as="geometry">
            <mxPoint y="-13" as="offset" />
          </mxGeometry>
        </mxCell>
        <mxCell id="jYkc-1DQ9nDgup6ayknT-77" value="" style="endArrow=classic;html=1;dashed=1;entryX=0;entryY=0.5;entryDx=0;entryDy=0;exitX=1;exitY=0.5;exitDx=0;exitDy=0;" edge="1" parent="1" source="jYkc-1DQ9nDgup6ayknT-79" target="jYkc-1DQ9nDgup6ayknT-6">
          <mxGeometry width="50" height="50" relative="1" as="geometry">
            <mxPoint x="370" y="373" as="sourcePoint" />
            <mxPoint x="420" y="350" as="targetPoint" />
            <Array as="points">
              <mxPoint x="420" y="170" />
              <mxPoint x="420" y="360" />
            </Array>
          </mxGeometry>
        </mxCell>
        <mxCell id="jYkc-1DQ9nDgup6ayknT-78" value="&lt;b&gt;&lt;i&gt;dev_add_pack&lt;/i&gt;&lt;/b&gt;" style="edgeLabel;html=1;align=center;verticalAlign=middle;resizable=0;points=[];" vertex="1" connectable="0" parent="jYkc-1DQ9nDgup6ayknT-77">
          <mxGeometry x="-0.1374" y="2" relative="1" as="geometry">
            <mxPoint y="-1" as="offset" />
          </mxGeometry>
        </mxCell>
        <mxCell id="jYkc-1DQ9nDgup6ayknT-79" value="ip_packet_type.func = &lt;b&gt;&lt;i&gt;ip_rcv&lt;/i&gt;&lt;/b&gt;" style="shape=step;perimeter=stepPerimeter;whiteSpace=wrap;html=1;fixedSize=1;size=-10;rounded=1;shadow=1;" vertex="1" parent="1">
          <mxGeometry x="230" y="150" width="150" height="40" as="geometry" />
        </mxCell>
        <mxCell id="jYkc-1DQ9nDgup6ayknT-80" value="ipv6_packet_type" style="shape=step;perimeter=stepPerimeter;whiteSpace=wrap;html=1;fixedSize=1;size=-10;rounded=1;shadow=1;" vertex="1" parent="1">
          <mxGeometry x="230" y="190" width="150" height="40" as="geometry" />
        </mxCell>
        <mxCell id="jYkc-1DQ9nDgup6ayknT-81" value="arp_packet_type" style="shape=step;perimeter=stepPerimeter;whiteSpace=wrap;html=1;fixedSize=1;size=-10;rounded=1;shadow=1;" vertex="1" parent="1">
          <mxGeometry x="230" y="230" width="150" height="40" as="geometry" />
        </mxCell>
        <mxCell id="jYkc-1DQ9nDgup6ayknT-82" value="br_handle_frame" style="shape=step;perimeter=stepPerimeter;whiteSpace=wrap;html=1;fixedSize=1;size=-10;rounded=1;shadow=1;" vertex="1" parent="1">
          <mxGeometry x="839.74" y="410" width="140" height="40" as="geometry" />
        </mxCell>
        <mxCell id="jYkc-1DQ9nDgup6ayknT-83" value="" style="endArrow=classic;html=1;dashed=1;entryX=1;entryY=0.5;entryDx=0;entryDy=0;" edge="1" parent="1" source="jYkc-1DQ9nDgup6ayknT-82" target="NEUN2svOgOYwnKvYQtpy-8">
          <mxGeometry width="50" height="50" relative="1" as="geometry">
            <mxPoint x="610" y="410" as="sourcePoint" />
            <mxPoint x="660" y="360" as="targetPoint" />
            <Array as="points">
              <mxPoint x="911" y="388" />
            </Array>
          </mxGeometry>
        </mxCell>
        <mxCell id="jYkc-1DQ9nDgup6ayknT-84" value="&lt;span style=&quot;font-size: 12px ; background-color: rgb(248 , 249 , 250)&quot;&gt;&lt;b&gt;&lt;i&gt;netdev_rx_handler_register&lt;/i&gt;&lt;/b&gt;&lt;/span&gt;" style="edgeLabel;html=1;align=center;verticalAlign=middle;resizable=0;points=[];" vertex="1" connectable="0" parent="jYkc-1DQ9nDgup6ayknT-83">
          <mxGeometry x="0.1177" relative="1" as="geometry">
            <mxPoint x="0.6400000000000006" as="offset" />
          </mxGeometry>
        </mxCell>
        <mxCell id="jYkc-1DQ9nDgup6ayknT-85" value="" style="shape=step;perimeter=stepPerimeter;whiteSpace=wrap;html=1;fixedSize=1;size=-10;shadow=1;rounded=1;" vertex="1" parent="1">
          <mxGeometry x="514.63" y="150" width="220" height="140" as="geometry" />
        </mxCell>
        <mxCell id="jYkc-1DQ9nDgup6ayknT-86" value="&lt;span&gt;&lt;b&gt;ip_rcv&lt;/b&gt;&lt;/span&gt;" style="text;html=1;align=center;verticalAlign=middle;resizable=0;points=[];autosize=1;" vertex="1" parent="1">
          <mxGeometry x="521.25" y="150" width="50" height="20" as="geometry" />
        </mxCell>
        <mxCell id="jYkc-1DQ9nDgup6ayknT-87" value="NF_INET_PRE_ROUTING" style="rounded=1;whiteSpace=wrap;html=1;align=center;fontStyle=0;dashed=1;shadow=1;glass=0;fillColor=#bac8d3;strokeColor=#23445d;" vertex="1" parent="1">
          <mxGeometry x="530" y="250" width="180" height="25" as="geometry" />
        </mxCell>
        <mxCell id="jYkc-1DQ9nDgup6ayknT-89" value="early demux" style="rounded=1;whiteSpace=wrap;html=1;align=center;fontStyle=0;dashed=1;shadow=1;glass=0;" vertex="1" parent="1">
          <mxGeometry x="531.5" y="220" width="97.75" height="25" as="geometry" />
        </mxCell>
        <mxCell id="jYkc-1DQ9nDgup6ayknT-90" value="dst_input" style="rounded=1;whiteSpace=wrap;html=1;align=center;fontStyle=0;dashed=1;shadow=1;glass=0;" vertex="1" parent="1">
          <mxGeometry x="610" y="190" width="100" height="25" as="geometry" />
        </mxCell>
        <mxCell id="NEUN2svOgOYwnKvYQtpy-3" value="RPS" style="rounded=1;whiteSpace=wrap;html=1;align=center;fontStyle=0;dashed=1;shadow=1;glass=0;" parent="1" vertex="1">
          <mxGeometry x="620" y="491" width="90" height="25" as="geometry" />
        </mxCell>
        <mxCell id="NEUN2svOgOYwnKvYQtpy-7" value="TC ingress" style="rounded=1;whiteSpace=wrap;html=1;align=center;fontStyle=3;dashed=1;shadow=1;glass=0;fillColor=#f5f5f5;strokeColor=#666666;fontColor=#333333;" parent="1" vertex="1">
          <mxGeometry x="620" y="431.5" width="90" height="25" as="geometry" />
        </mxCell>
        <mxCell id="NEUN2svOgOYwnKvYQtpy-8" value="device handler" style="rounded=1;whiteSpace=wrap;html=1;align=center;fontStyle=0;dashed=1;shadow=1;glass=0;" parent="1" vertex="1">
          <mxGeometry x="620" y="375.5" width="90" height="25" as="geometry" />
        </mxCell>
        <mxCell id="jYkc-1DQ9nDgup6ayknT-92" value="" style="shape=step;perimeter=stepPerimeter;whiteSpace=wrap;html=1;fixedSize=1;size=-10;shadow=1;rounded=1;" vertex="1" parent="1">
          <mxGeometry x="514.63" y="-30" width="220" height="160" as="geometry" />
        </mxCell>
        <mxCell id="jYkc-1DQ9nDgup6ayknT-93" value="&lt;span&gt;&lt;b&gt;ip_local_deliver&lt;/b&gt;&lt;/span&gt;" style="text;html=1;align=center;verticalAlign=middle;resizable=0;points=[];autosize=1;" vertex="1" parent="1">
          <mxGeometry x="514.63" y="-30" width="110" height="20" as="geometry" />
        </mxCell>
        <mxCell id="jYkc-1DQ9nDgup6ayknT-94" value="NF_INET_LOCAL_IN" style="rounded=1;whiteSpace=wrap;html=1;align=center;fontStyle=0;dashed=1;shadow=1;glass=0;fillColor=#bac8d3;strokeColor=#23445d;" vertex="1" parent="1">
          <mxGeometry x="528.87" y="60" width="180" height="25" as="geometry" />
        </mxCell>
        <mxCell id="jYkc-1DQ9nDgup6ayknT-95" value="defrag" style="rounded=1;whiteSpace=wrap;html=1;align=center;fontStyle=0;dashed=1;shadow=1;glass=0;" vertex="1" parent="1">
          <mxGeometry x="526.88" y="90" width="97.75" height="25" as="geometry" />
        </mxCell>
        <mxCell id="jYkc-1DQ9nDgup6ayknT-96" value="raw socket deliver" style="rounded=1;whiteSpace=wrap;html=1;align=center;fontStyle=0;dashed=1;shadow=1;glass=0;" vertex="1" parent="1">
          <mxGeometry x="600" y="30" width="110" height="25" as="geometry" />
        </mxCell>
        <mxCell id="jYkc-1DQ9nDgup6ayknT-97" value="" style="shape=step;perimeter=stepPerimeter;whiteSpace=wrap;html=1;fixedSize=1;size=-10;shadow=1;rounded=1;" vertex="1" parent="1">
          <mxGeometry x="782" y="-30" width="220" height="110" as="geometry" />
        </mxCell>
        <mxCell id="jYkc-1DQ9nDgup6ayknT-98" value="&lt;span&gt;&lt;b&gt;ip_forward&lt;/b&gt;&lt;/span&gt;" style="text;html=1;align=center;verticalAlign=middle;resizable=0;points=[];autosize=1;" vertex="1" parent="1">
          <mxGeometry x="782" y="-30" width="80" height="20" as="geometry" />
        </mxCell>
        <mxCell id="jYkc-1DQ9nDgup6ayknT-99" value="NF_INET_FORWARD" style="rounded=1;whiteSpace=wrap;html=1;align=center;fontStyle=0;dashed=1;shadow=1;glass=0;fillColor=#bac8d3;strokeColor=#23445d;" vertex="1" parent="1">
          <mxGeometry x="794.0600000000001" y="35" width="180" height="25" as="geometry" />
        </mxCell>
        <mxCell id="jYkc-1DQ9nDgup6ayknT-100" value="dst_output" style="rounded=1;whiteSpace=wrap;html=1;align=center;fontStyle=0;dashed=1;shadow=1;glass=0;" vertex="1" parent="1">
          <mxGeometry x="795.5600000000001" y="5" width="97.75" height="25" as="geometry" />
        </mxCell>
        <mxCell id="jYkc-1DQ9nDgup6ayknT-102" value="L4 proto handler" style="rounded=1;whiteSpace=wrap;html=1;align=center;fontStyle=0;dashed=1;shadow=1;glass=0;" vertex="1" parent="1">
          <mxGeometry x="525.76" width="100" height="25" as="geometry" />
        </mxCell>
        <mxCell id="jYkc-1DQ9nDgup6ayknT-105" value="udp_protocol" style="shape=step;perimeter=stepPerimeter;whiteSpace=wrap;html=1;fixedSize=1;size=-10;rounded=1;shadow=1;" vertex="1" parent="1">
          <mxGeometry x="230" y="-80" width="150" height="40" as="geometry" />
        </mxCell>
        <mxCell id="jYkc-1DQ9nDgup6ayknT-108" value="icmp_protocol" style="shape=step;perimeter=stepPerimeter;whiteSpace=wrap;html=1;fixedSize=1;size=-10;rounded=1;shadow=1;" vertex="1" parent="1">
          <mxGeometry x="230" y="-40" width="150" height="40" as="geometry" />
        </mxCell>
        <mxCell id="jYkc-1DQ9nDgup6ayknT-109" value="net_gre_protocol" style="shape=step;perimeter=stepPerimeter;whiteSpace=wrap;html=1;fixedSize=1;size=-10;rounded=1;shadow=1;" vertex="1" parent="1">
          <mxGeometry x="230" width="150" height="40" as="geometry" />
        </mxCell>
        <mxCell id="jYkc-1DQ9nDgup6ayknT-110" value="tunnel4_protocol" style="shape=step;perimeter=stepPerimeter;whiteSpace=wrap;html=1;fixedSize=1;size=-10;rounded=1;shadow=1;" vertex="1" parent="1">
          <mxGeometry x="230" y="40" width="150" height="40" as="geometry" />
        </mxCell>
        <mxCell id="jYkc-1DQ9nDgup6ayknT-112" value="" style="endArrow=classic;html=1;dashed=1;entryX=0;entryY=0.5;entryDx=0;entryDy=0;exitX=1;exitY=0.5;exitDx=0;exitDy=0;" edge="1" parent="1" source="DjlL4Gagi0AbFThIr3c9-72" target="jYkc-1DQ9nDgup6ayknT-102">
          <mxGeometry width="50" height="50" relative="1" as="geometry">
            <mxPoint x="780" y="100" as="sourcePoint" />
            <mxPoint x="830" y="50" as="targetPoint" />
            <Array as="points">
              <mxPoint x="420" y="-100" />
              <mxPoint x="420" y="13" />
            </Array>
          </mxGeometry>
        </mxCell>
        <mxCell id="jYkc-1DQ9nDgup6ayknT-113" value="&lt;b&gt;&lt;i&gt;inet_add_protocol&lt;/i&gt;&lt;/b&gt;" style="edgeLabel;html=1;align=center;verticalAlign=middle;resizable=0;points=[];" vertex="1" connectable="0" parent="jYkc-1DQ9nDgup6ayknT-112">
          <mxGeometry x="-0.2944" relative="1" as="geometry">
            <mxPoint x="20" as="offset" />
          </mxGeometry>
        </mxCell>
        <mxCell id="jYkc-1DQ9nDgup6ayknT-114" value="" style="endArrow=classic;html=1;dashed=1;entryX=0;entryY=0.5;entryDx=0;entryDy=0;" edge="1" parent="1" target="jYkc-1DQ9nDgup6ayknT-89">
          <mxGeometry width="50" height="50" relative="1" as="geometry">
            <mxPoint x="460" y="10" as="sourcePoint" />
            <mxPoint x="830" y="200" as="targetPoint" />
            <Array as="points">
              <mxPoint x="460" y="233" />
            </Array>
          </mxGeometry>
        </mxCell>
        <mxCell id="jYkc-1DQ9nDgup6ayknT-115" value="ip_packet_offload" style="shape=step;perimeter=stepPerimeter;whiteSpace=wrap;html=1;fixedSize=1;size=-10;rounded=1;shadow=1;" vertex="1" parent="1">
          <mxGeometry x="230" y="320" width="150" height="40" as="geometry" />
        </mxCell>
        <mxCell id="jYkc-1DQ9nDgup6ayknT-116" value="ipv6_packet_offload" style="shape=step;perimeter=stepPerimeter;whiteSpace=wrap;html=1;fixedSize=1;size=-10;rounded=1;shadow=1;" vertex="1" parent="1">
          <mxGeometry x="230" y="360" width="150" height="40" as="geometry" />
        </mxCell>
        <mxCell id="jYkc-1DQ9nDgup6ayknT-117" value="eth_packet_offload" style="shape=step;perimeter=stepPerimeter;whiteSpace=wrap;html=1;fixedSize=1;size=-10;rounded=1;shadow=1;" vertex="1" parent="1">
          <mxGeometry x="230" y="400" width="150" height="40" as="geometry" />
        </mxCell>
        <mxCell id="jYkc-1DQ9nDgup6ayknT-118" value="" style="endArrow=classic;html=1;dashed=1;entryX=0.25;entryY=0;entryDx=0;entryDy=0;exitX=1;exitY=0.5;exitDx=0;exitDy=0;" edge="1" parent="1" source="jYkc-1DQ9nDgup6ayknT-115" target="DjlL4Gagi0AbFThIr3c9-52">
          <mxGeometry width="50" height="50" relative="1" as="geometry">
            <mxPoint x="380" y="340" as="sourcePoint" />
            <mxPoint x="770" y="540" as="targetPoint" />
            <Array as="points">
              <mxPoint x="410" y="340" />
              <mxPoint x="410" y="430" />
              <mxPoint x="500" y="430" />
              <mxPoint x="500" y="690" />
            </Array>
          </mxGeometry>
        </mxCell>
        <mxCell id="jYkc-1DQ9nDgup6ayknT-119" value="&lt;b&gt;&lt;i&gt;dev_add_offload&lt;/i&gt;&lt;/b&gt;" style="edgeLabel;html=1;align=center;verticalAlign=middle;resizable=0;points=[];" vertex="1" connectable="0" parent="jYkc-1DQ9nDgup6ayknT-118">
          <mxGeometry x="-0.6593" y="25" relative="1" as="geometry">
            <mxPoint x="10.89" y="22.5" as="offset" />
          </mxGeometry>
        </mxCell>
        <mxCell id="jYkc-1DQ9nDgup6ayknT-120" value="tcpv4_offload" style="shape=step;perimeter=stepPerimeter;whiteSpace=wrap;html=1;fixedSize=1;size=-10;rounded=1;shadow=1;" vertex="1" parent="1">
          <mxGeometry x="40" y="-120" width="150" height="40" as="geometry" />
        </mxCell>
        <mxCell id="jYkc-1DQ9nDgup6ayknT-121" value="udpv4_offload" style="shape=step;perimeter=stepPerimeter;whiteSpace=wrap;html=1;fixedSize=1;size=-10;rounded=1;shadow=1;" vertex="1" parent="1">
          <mxGeometry x="40" y="-80" width="150" height="40" as="geometry" />
        </mxCell>
        <mxCell id="jYkc-1DQ9nDgup6ayknT-123" value="gre_offload" style="shape=step;perimeter=stepPerimeter;whiteSpace=wrap;html=1;fixedSize=1;size=-10;rounded=1;shadow=1;" vertex="1" parent="1">
          <mxGeometry x="40" y="-40" width="150" height="40" as="geometry" />
        </mxCell>
        <mxCell id="jYkc-1DQ9nDgup6ayknT-124" value="ipip_offload" style="shape=step;perimeter=stepPerimeter;whiteSpace=wrap;html=1;fixedSize=1;size=-10;rounded=1;shadow=1;" vertex="1" parent="1">
          <mxGeometry x="40" width="150" height="40" as="geometry" />
        </mxCell>
        <mxCell id="jYkc-1DQ9nDgup6ayknT-125" value="" style="endArrow=classic;html=1;dashed=1;entryX=0;entryY=0.5;entryDx=0;entryDy=0;exitX=1;exitY=0.5;exitDx=0;exitDy=0;" edge="1" parent="1" source="jYkc-1DQ9nDgup6ayknT-120" target="jYkc-1DQ9nDgup6ayknT-115">
          <mxGeometry width="50" height="50" relative="1" as="geometry">
            <mxPoint x="200" y="20" as="sourcePoint" />
            <mxPoint x="620" y="140" as="targetPoint" />
            <Array as="points">
              <mxPoint x="210" y="-100" />
              <mxPoint x="210" y="340" />
            </Array>
          </mxGeometry>
        </mxCell>
        <mxCell id="jYkc-1DQ9nDgup6ayknT-126" value="&lt;b&gt;&lt;i&gt;inet_add_offload&lt;/i&gt;&lt;/b&gt;" style="edgeLabel;html=1;align=center;verticalAlign=middle;resizable=0;points=[];" vertex="1" connectable="0" parent="1">
          <mxGeometry x="209.9999999999999" y="90.00142857142845" as="geometry">
            <mxPoint x="10.89" y="22.5" as="offset" />
          </mxGeometry>
        </mxCell>
        <mxCell id="jYkc-1DQ9nDgup6ayknT-127" value="inet_family_ops" style="shape=step;perimeter=stepPerimeter;whiteSpace=wrap;html=1;fixedSize=1;size=-10;rounded=1;shadow=1;" vertex="1" parent="1">
          <mxGeometry x="230" y="-620" width="150" height="40" as="geometry" />
        </mxCell>
        <mxCell id="jYkc-1DQ9nDgup6ayknT-128" value="inet6_family_ops" style="shape=step;perimeter=stepPerimeter;whiteSpace=wrap;html=1;fixedSize=1;size=-10;rounded=1;shadow=1;" vertex="1" parent="1">
          <mxGeometry x="230" y="-580" width="150" height="40" as="geometry" />
        </mxCell>
        <mxCell id="jYkc-1DQ9nDgup6ayknT-129" value="packet_family_ops&lt;br&gt;" style="shape=step;perimeter=stepPerimeter;whiteSpace=wrap;html=1;fixedSize=1;size=-10;rounded=1;shadow=1;" vertex="1" parent="1">
          <mxGeometry x="230" y="-540" width="150" height="40" as="geometry" />
        </mxCell>
        <mxCell id="jYkc-1DQ9nDgup6ayknT-130" value="&lt;span&gt;netlink_family_ops&lt;/span&gt;" style="shape=step;perimeter=stepPerimeter;whiteSpace=wrap;html=1;fixedSize=1;size=-10;rounded=1;shadow=1;" vertex="1" parent="1">
          <mxGeometry x="230" y="-500" width="150" height="40" as="geometry" />
        </mxCell>
        <mxCell id="jYkc-1DQ9nDgup6ayknT-132" value="" style="shape=step;perimeter=stepPerimeter;whiteSpace=wrap;html=1;fixedSize=1;size=-10;shadow=1;rounded=1;" vertex="1" parent="1">
          <mxGeometry x="514.63" y="-590" width="215.37" height="140" as="geometry" />
        </mxCell>
        <mxCell id="jYkc-1DQ9nDgup6ayknT-133" value="&lt;span&gt;&lt;b&gt;inet_create&lt;/b&gt;&lt;/span&gt;" style="text;html=1;align=center;verticalAlign=middle;resizable=0;points=[];autosize=1;" vertex="1" parent="1">
          <mxGeometry x="514.63" y="-590" width="80" height="20" as="geometry" />
        </mxCell>
        <mxCell id="jYkc-1DQ9nDgup6ayknT-135" value="sk_alloc" style="rounded=1;whiteSpace=wrap;html=1;align=center;fontStyle=0;dashed=1;shadow=1;glass=0;" vertex="1" parent="1">
          <mxGeometry x="531.5" y="-542.5" width="97.75" height="25" as="geometry" />
        </mxCell>
        <mxCell id="jYkc-1DQ9nDgup6ayknT-136" value="inetsw" style="rounded=1;whiteSpace=wrap;html=1;align=center;fontStyle=0;dashed=1;shadow=1;glass=0;" vertex="1" parent="1">
          <mxGeometry x="610" y="-570" width="100" height="25" as="geometry" />
        </mxCell>
        <mxCell id="jYkc-1DQ9nDgup6ayknT-138" value="xsk_family_ops" style="shape=step;perimeter=stepPerimeter;whiteSpace=wrap;html=1;fixedSize=1;size=-10;rounded=1;shadow=1;" vertex="1" parent="1">
          <mxGeometry x="230" y="-460" width="150" height="40" as="geometry" />
        </mxCell>
        <mxCell id="jYkc-1DQ9nDgup6ayknT-139" value="" style="shape=step;perimeter=stepPerimeter;whiteSpace=wrap;html=1;fixedSize=1;size=-10;shadow=1;rounded=1;" vertex="1" parent="1">
          <mxGeometry x="514.63" y="-750" width="215.37" height="140" as="geometry" />
        </mxCell>
        <mxCell id="jYkc-1DQ9nDgup6ayknT-140" value="&lt;b&gt;SYSCALL_DEFINE3 (socket ...)&lt;/b&gt;" style="text;html=1;align=center;verticalAlign=middle;resizable=0;points=[];autosize=1;" vertex="1" parent="1">
          <mxGeometry x="514.63" y="-750" width="190" height="20" as="geometry" />
        </mxCell>
        <mxCell id="jYkc-1DQ9nDgup6ayknT-142" value="net_families[*]-&amp;gt;create" style="rounded=1;whiteSpace=wrap;html=1;align=center;fontStyle=0;dashed=1;shadow=1;glass=0;" vertex="1" parent="1">
          <mxGeometry x="531.5" y="-680" width="158.5" height="25" as="geometry" />
        </mxCell>
        <mxCell id="jYkc-1DQ9nDgup6ayknT-143" value="sock_alloc" style="rounded=1;whiteSpace=wrap;html=1;align=center;fontStyle=0;dashed=1;shadow=1;glass=0;" vertex="1" parent="1">
          <mxGeometry x="610" y="-710" width="100" height="25" as="geometry" />
        </mxCell>
        <mxCell id="jYkc-1DQ9nDgup6ayknT-144" value="sock_map_fd" style="rounded=1;whiteSpace=wrap;html=1;align=center;fontStyle=0;dashed=1;shadow=1;glass=0;" vertex="1" parent="1">
          <mxGeometry x="610" y="-650" width="100" height="25" as="geometry" />
        </mxCell>
        <mxCell id="jYkc-1DQ9nDgup6ayknT-146" value="" style="endArrow=classic;html=1;dashed=1;entryX=0;entryY=0.5;entryDx=0;entryDy=0;exitX=1;exitY=0.5;exitDx=0;exitDy=0;" edge="1" parent="1" source="jYkc-1DQ9nDgup6ayknT-127" target="jYkc-1DQ9nDgup6ayknT-142">
          <mxGeometry width="50" height="50" relative="1" as="geometry">
            <mxPoint x="540" y="-530" as="sourcePoint" />
            <mxPoint x="590" y="-580" as="targetPoint" />
            <Array as="points">
              <mxPoint x="430" y="-600" />
              <mxPoint x="430" y="-667" />
            </Array>
          </mxGeometry>
        </mxCell>
        <mxCell id="jYkc-1DQ9nDgup6ayknT-147" value="&lt;span style=&quot;font-size: 12px ; background-color: rgb(248 , 249 , 250)&quot;&gt;&lt;b&gt;&lt;i&gt;sock_register&lt;/i&gt;&lt;/b&gt;&lt;/span&gt;" style="edgeLabel;html=1;align=center;verticalAlign=middle;resizable=0;points=[];" vertex="1" connectable="0" parent="jYkc-1DQ9nDgup6ayknT-146">
          <mxGeometry x="-0.2918" relative="1" as="geometry">
            <mxPoint x="3.75" y="-17" as="offset" />
          </mxGeometry>
        </mxCell>
        <mxCell id="jYkc-1DQ9nDgup6ayknT-148" value="" style="endArrow=classic;html=1;entryX=0.505;entryY=0;entryDx=0;entryDy=0;entryPerimeter=0;exitX=0.25;exitY=1;exitDx=0;exitDy=0;" edge="1" parent="1" source="jYkc-1DQ9nDgup6ayknT-142" target="jYkc-1DQ9nDgup6ayknT-133">
          <mxGeometry width="50" height="50" relative="1" as="geometry">
            <mxPoint x="540" y="-530" as="sourcePoint" />
            <mxPoint x="590" y="-580" as="targetPoint" />
            <Array as="points">
              <mxPoint x="555" y="-640" />
            </Array>
          </mxGeometry>
        </mxCell>
        <mxCell id="jYkc-1DQ9nDgup6ayknT-149" value="inet_stream_ops" style="shape=step;perimeter=stepPerimeter;whiteSpace=wrap;html=1;fixedSize=1;size=-10;rounded=1;shadow=1;" vertex="1" parent="1">
          <mxGeometry x="80" y="-350" width="150" height="40" as="geometry" />
        </mxCell>
        <mxCell id="jYkc-1DQ9nDgup6ayknT-150" value="inet_dgram_ops" style="shape=step;perimeter=stepPerimeter;whiteSpace=wrap;html=1;fixedSize=1;size=-10;rounded=1;shadow=1;" vertex="1" parent="1">
          <mxGeometry x="80" y="-310" width="150" height="40" as="geometry" />
        </mxCell>
        <mxCell id="jYkc-1DQ9nDgup6ayknT-151" value="inet_sockraw_ops" style="shape=step;perimeter=stepPerimeter;whiteSpace=wrap;html=1;fixedSize=1;size=-10;rounded=1;shadow=1;" vertex="1" parent="1">
          <mxGeometry x="80" y="-250" width="150" height="40" as="geometry" />
        </mxCell>
        <mxCell id="jYkc-1DQ9nDgup6ayknT-154" value="tcp_prot" style="shape=step;perimeter=stepPerimeter;whiteSpace=wrap;html=1;fixedSize=1;size=-10;rounded=1;shadow=1;" vertex="1" parent="1">
          <mxGeometry x="230" y="-350" width="150" height="40" as="geometry" />
        </mxCell>
        <mxCell id="jYkc-1DQ9nDgup6ayknT-155" value="udp_prot" style="shape=step;perimeter=stepPerimeter;whiteSpace=wrap;html=1;fixedSize=1;size=-10;rounded=1;shadow=1;" vertex="1" parent="1">
          <mxGeometry x="230" y="-310" width="150" height="40" as="geometry" />
        </mxCell>
        <mxCell id="jYkc-1DQ9nDgup6ayknT-156" value="ping_prot" style="shape=step;perimeter=stepPerimeter;whiteSpace=wrap;html=1;fixedSize=1;size=-10;rounded=1;shadow=1;" vertex="1" parent="1">
          <mxGeometry x="230" y="-270" width="150" height="40" as="geometry" />
        </mxCell>
        <mxCell id="jYkc-1DQ9nDgup6ayknT-157" value="raw_prot" style="shape=step;perimeter=stepPerimeter;whiteSpace=wrap;html=1;fixedSize=1;size=-10;rounded=1;shadow=1;" vertex="1" parent="1">
          <mxGeometry x="230" y="-230" width="150" height="40" as="geometry" />
        </mxCell>
        <mxCell id="jYkc-1DQ9nDgup6ayknT-158" value="sock-&amp;gt;ops" style="rounded=1;whiteSpace=wrap;html=1;align=center;fontStyle=0;dashed=1;shadow=1;glass=0;" vertex="1" parent="1">
          <mxGeometry x="610" y="-515.5" width="97.75" height="25" as="geometry" />
        </mxCell>
        <mxCell id="jYkc-1DQ9nDgup6ayknT-159" value="sk-&amp;gt;sk_prot" style="rounded=1;whiteSpace=wrap;html=1;align=center;fontStyle=0;dashed=1;shadow=1;glass=0;" vertex="1" parent="1">
          <mxGeometry x="531.88" y="-487" width="97.75" height="25" as="geometry" />
        </mxCell>
        <mxCell id="jYkc-1DQ9nDgup6ayknT-160" value="" style="endArrow=classic;html=1;dashed=1;entryX=0;entryY=0.5;entryDx=0;entryDy=0;exitX=1;exitY=0.5;exitDx=0;exitDy=0;" edge="1" parent="1" source="jYkc-1DQ9nDgup6ayknT-154" target="jYkc-1DQ9nDgup6ayknT-136">
          <mxGeometry width="50" height="50" relative="1" as="geometry">
            <mxPoint x="310" y="-460" as="sourcePoint" />
            <mxPoint x="360" y="-510" as="targetPoint" />
            <Array as="points">
              <mxPoint x="460" y="-330" />
              <mxPoint x="460" y="-557" />
            </Array>
          </mxGeometry>
        </mxCell>
        <mxCell id="jYkc-1DQ9nDgup6ayknT-161" value="&lt;b&gt;&lt;i&gt;inet_register_protosw&lt;/i&gt;&lt;/b&gt;" style="edgeLabel;html=1;align=center;verticalAlign=middle;resizable=0;points=[];" vertex="1" connectable="0" parent="jYkc-1DQ9nDgup6ayknT-160">
          <mxGeometry x="-0.1729" y="-1" relative="1" as="geometry">
            <mxPoint x="24" y="9" as="offset" />
          </mxGeometry>
        </mxCell>
        <mxCell id="jYkc-1DQ9nDgup6ayknT-163" value="" style="endArrow=classic;startArrow=classic;html=1;dashed=1;entryX=0;entryY=0.5;entryDx=0;entryDy=0;exitX=0.5;exitY=0;exitDx=0;exitDy=0;dashPattern=1 1;" edge="1" parent="1" source="jYkc-1DQ9nDgup6ayknT-149" target="jYkc-1DQ9nDgup6ayknT-158">
          <mxGeometry width="50" height="50" relative="1" as="geometry">
            <mxPoint x="310" y="-380" as="sourcePoint" />
            <mxPoint x="360" y="-430" as="targetPoint" />
            <Array as="points">
              <mxPoint x="155" y="-380" />
              <mxPoint x="410" y="-380" />
              <mxPoint x="410" y="-503" />
            </Array>
          </mxGeometry>
        </mxCell>
        <mxCell id="jYkc-1DQ9nDgup6ayknT-164" value="" style="endArrow=classic;startArrow=classic;html=1;dashed=1;entryX=0;entryY=0.5;entryDx=0;entryDy=0;exitX=0.5;exitY=0;exitDx=0;exitDy=0;dashPattern=1 1;" edge="1" parent="1" source="jYkc-1DQ9nDgup6ayknT-154" target="jYkc-1DQ9nDgup6ayknT-159">
          <mxGeometry width="50" height="50" relative="1" as="geometry">
            <mxPoint x="165" y="-340" as="sourcePoint" />
            <mxPoint x="620" y="-493" as="targetPoint" />
            <Array as="points">
              <mxPoint x="305" y="-370" />
              <mxPoint x="420" y="-370" />
              <mxPoint x="420" y="-474" />
            </Array>
          </mxGeometry>
        </mxCell>
        <mxCell id="jYkc-1DQ9nDgup6ayknT-166" value="" style="shape=step;perimeter=stepPerimeter;whiteSpace=wrap;html=1;fixedSize=1;size=-10;shadow=1;rounded=1;" vertex="1" parent="1">
          <mxGeometry x="514.63" y="-310" width="220" height="260" as="geometry" />
        </mxCell>
        <mxCell id="jYkc-1DQ9nDgup6ayknT-167" value="&lt;span&gt;&lt;b&gt;udp_rcv&lt;/b&gt;&lt;/span&gt;" style="text;html=1;align=center;verticalAlign=middle;resizable=0;points=[];autosize=1;" vertex="1" parent="1">
          <mxGeometry x="516.25" y="-310" width="60" height="20" as="geometry" />
        </mxCell>
        <mxCell id="jYkc-1DQ9nDgup6ayknT-169" value="lookup sk" style="rounded=1;whiteSpace=wrap;html=1;align=center;fontStyle=0;dashed=1;shadow=1;glass=0;" vertex="1" parent="1">
          <mxGeometry x="526.88" y="-90" width="143.12" height="25" as="geometry" />
        </mxCell>
        <mxCell id="jYkc-1DQ9nDgup6ayknT-170" value="udp_table" style="rounded=1;whiteSpace=wrap;html=1;align=center;fontStyle=0;dashed=1;shadow=1;glass=0;" vertex="1" parent="1">
          <mxGeometry x="605" y="-120" width="110" height="25" as="geometry" />
        </mxCell>
        <mxCell id="jYkc-1DQ9nDgup6ayknT-171" value="reuse port" style="rounded=1;whiteSpace=wrap;html=1;align=center;fontStyle=0;dashed=1;shadow=1;glass=0;" vertex="1" parent="1">
          <mxGeometry x="527.75" y="-150" width="100" height="25" as="geometry" />
        </mxCell>
        <mxCell id="jYkc-1DQ9nDgup6ayknT-173" value="encap" style="rounded=1;whiteSpace=wrap;html=1;align=center;fontStyle=0;dashed=1;shadow=1;glass=0;" vertex="1" parent="1">
          <mxGeometry x="615" y="-180" width="100" height="25" as="geometry" />
        </mxCell>
        <mxCell id="jYkc-1DQ9nDgup6ayknT-174" value="sk-&amp;gt;sk_receive_queue" style="rounded=1;whiteSpace=wrap;html=1;align=center;fontStyle=0;dashed=1;shadow=1;glass=0;fillColor=#f5f5f5;strokeColor=#666666;gradientColor=#b3b3b3;" vertex="1" parent="1">
          <mxGeometry x="527.75" y="-210" width="132.25" height="25" as="geometry" />
        </mxCell>
        <mxCell id="jYkc-1DQ9nDgup6ayknT-176" value="sk-&amp;gt;sk_data_ready" style="rounded=1;whiteSpace=wrap;html=1;align=center;fontStyle=0;dashed=1;shadow=1;glass=0;" vertex="1" parent="1">
          <mxGeometry x="575.5" y="-242.5" width="132.25" height="25" as="geometry" />
        </mxCell>
        <mxCell id="jYkc-1DQ9nDgup6ayknT-177" value="sk-&amp;gt;sk_wq" style="rounded=1;whiteSpace=wrap;html=1;align=center;fontStyle=0;dashed=1;shadow=1;glass=0;" vertex="1" parent="1">
          <mxGeometry x="525.76" y="-275" width="132.25" height="25" as="geometry" />
        </mxCell>
        <mxCell id="jYkc-1DQ9nDgup6ayknT-178" value="" style="shape=step;perimeter=stepPerimeter;whiteSpace=wrap;html=1;fixedSize=1;size=-10;shadow=1;rounded=1;" vertex="1" parent="1">
          <mxGeometry x="782" y="-750" width="215.37" height="110" as="geometry" />
        </mxCell>
        <mxCell id="jYkc-1DQ9nDgup6ayknT-179" value="&lt;b&gt;SYSCALL_DEFINE3 (bind ...)&lt;/b&gt;" style="text;html=1;align=center;verticalAlign=middle;resizable=0;points=[];autosize=1;" vertex="1" parent="1">
          <mxGeometry x="787" y="-750" width="180" height="20" as="geometry" />
        </mxCell>
        <mxCell id="jYkc-1DQ9nDgup6ayknT-180" value="sock-&amp;gt;ops-&amp;gt;bind" style="rounded=1;whiteSpace=wrap;html=1;align=center;fontStyle=0;dashed=1;shadow=1;glass=0;" vertex="1" parent="1">
          <mxGeometry x="798.87" y="-680" width="158.5" height="25" as="geometry" />
        </mxCell>
        <mxCell id="jYkc-1DQ9nDgup6ayknT-181" value="sockfd_lookup_light" style="rounded=1;whiteSpace=wrap;html=1;align=center;fontStyle=0;dashed=1;shadow=1;glass=0;" vertex="1" parent="1">
          <mxGeometry x="850" y="-710" width="127.37" height="25" as="geometry" />
        </mxCell>
        <mxCell id="jYkc-1DQ9nDgup6ayknT-186" value="" style="shape=step;perimeter=stepPerimeter;whiteSpace=wrap;html=1;fixedSize=1;size=-10;shadow=1;rounded=1;" vertex="1" parent="1">
          <mxGeometry x="782" y="-590" width="215.37" height="70" as="geometry" />
        </mxCell>
        <mxCell id="jYkc-1DQ9nDgup6ayknT-187" value="&lt;span&gt;&lt;b&gt;inet_bind&lt;/b&gt;&lt;/span&gt;" style="text;html=1;align=center;verticalAlign=middle;resizable=0;points=[];autosize=1;" vertex="1" parent="1">
          <mxGeometry x="787" y="-590" width="70" height="20" as="geometry" />
        </mxCell>
        <mxCell id="jYkc-1DQ9nDgup6ayknT-189" value="sk-&amp;gt;sk_prot-&amp;gt;get_port" style="rounded=1;whiteSpace=wrap;html=1;align=center;fontStyle=0;dashed=1;shadow=1;glass=0;" vertex="1" parent="1">
          <mxGeometry x="830" y="-565" width="147.37" height="25" as="geometry" />
        </mxCell>
        <mxCell id="jYkc-1DQ9nDgup6ayknT-192" value="" style="shape=step;perimeter=stepPerimeter;whiteSpace=wrap;html=1;fixedSize=1;size=-10;shadow=1;rounded=1;" vertex="1" parent="1">
          <mxGeometry x="782" y="-427.5" width="215.37" height="100" as="geometry" />
        </mxCell>
        <mxCell id="jYkc-1DQ9nDgup6ayknT-193" value="&lt;b&gt;udp_lib_get_port&lt;/b&gt;" style="text;html=1;align=center;verticalAlign=middle;resizable=0;points=[];autosize=1;" vertex="1" parent="1">
          <mxGeometry x="782" y="-427.5" width="110" height="20" as="geometry" />
        </mxCell>
        <mxCell id="jYkc-1DQ9nDgup6ayknT-194" value="sk-&amp;gt;sk_node" style="rounded=1;whiteSpace=wrap;html=1;align=center;fontStyle=0;dashed=1;shadow=1;glass=0;" vertex="1" parent="1">
          <mxGeometry x="794.06" y="-367.5" width="147.37" height="25" as="geometry" />
        </mxCell>
        <mxCell id="jYkc-1DQ9nDgup6ayknT-195" value="udp_reuseport_add_sock" style="rounded=1;whiteSpace=wrap;html=1;align=center;fontStyle=0;dashed=1;shadow=1;glass=0;" vertex="1" parent="1">
          <mxGeometry x="833.38" y="-397.5" width="147.37" height="25" as="geometry" />
        </mxCell>
        <mxCell id="jYkc-1DQ9nDgup6ayknT-196" value="" style="endArrow=classic;startArrow=classic;html=1;dashed=1;dashPattern=1 1;entryX=0.25;entryY=1;entryDx=0;entryDy=0;exitX=1;exitY=0.5;exitDx=0;exitDy=0;" edge="1" parent="1" source="jYkc-1DQ9nDgup6ayknT-170" target="jYkc-1DQ9nDgup6ayknT-194">
          <mxGeometry width="50" height="50" relative="1" as="geometry">
            <mxPoint x="780" y="-200" as="sourcePoint" />
            <mxPoint x="830" y="-250" as="targetPoint" />
            <Array as="points">
              <mxPoint x="760" y="-107" />
              <mxPoint x="760" y="-150" />
              <mxPoint x="831" y="-150" />
            </Array>
          </mxGeometry>
        </mxCell>
        <mxCell id="jYkc-1DQ9nDgup6ayknT-197" value="" style="endArrow=classic;startArrow=classic;html=1;dashed=1;dashPattern=1 1;entryX=0;entryY=0.5;entryDx=0;entryDy=0;exitX=1;exitY=0.75;exitDx=0;exitDy=0;" edge="1" parent="1" source="jYkc-1DQ9nDgup6ayknT-171" target="jYkc-1DQ9nDgup6ayknT-195">
          <mxGeometry width="50" height="50" relative="1" as="geometry">
            <mxPoint x="780" y="-200" as="sourcePoint" />
            <mxPoint x="830" y="-250" as="targetPoint" />
            <Array as="points">
              <mxPoint x="750" y="-131" />
              <mxPoint x="750" y="-385" />
            </Array>
          </mxGeometry>
        </mxCell>
        <mxCell id="jYkc-1DQ9nDgup6ayknT-198" value="" style="shape=step;perimeter=stepPerimeter;whiteSpace=wrap;html=1;fixedSize=1;size=-10;shadow=1;rounded=1;" vertex="1" parent="1">
          <mxGeometry x="1040" y="-750" width="215.37" height="110" as="geometry" />
        </mxCell>
        <mxCell id="jYkc-1DQ9nDgup6ayknT-199" value="&lt;b&gt;SYSCALL_DEFINE6 (recvfrom ...)&lt;/b&gt;" style="text;html=1;align=center;verticalAlign=middle;resizable=0;points=[];autosize=1;" vertex="1" parent="1">
          <mxGeometry x="1041" y="-750" width="200" height="20" as="geometry" />
        </mxCell>
        <mxCell id="jYkc-1DQ9nDgup6ayknT-200" value="sock-&amp;gt;ops-&amp;gt;recvmsg" style="rounded=1;whiteSpace=wrap;html=1;align=center;fontStyle=0;dashed=1;shadow=1;glass=0;" vertex="1" parent="1">
          <mxGeometry x="1056.87" y="-680" width="158.5" height="25" as="geometry" />
        </mxCell>
        <mxCell id="jYkc-1DQ9nDgup6ayknT-201" value="sockfd_lookup_light" style="rounded=1;whiteSpace=wrap;html=1;align=center;fontStyle=0;dashed=1;shadow=1;glass=0;" vertex="1" parent="1">
          <mxGeometry x="1108" y="-710" width="127.37" height="25" as="geometry" />
        </mxCell>
        <mxCell id="jYkc-1DQ9nDgup6ayknT-202" value="" style="shape=step;perimeter=stepPerimeter;whiteSpace=wrap;html=1;fixedSize=1;size=-10;shadow=1;rounded=1;" vertex="1" parent="1">
          <mxGeometry x="1040" y="-592.5" width="215.37" height="70" as="geometry" />
        </mxCell>
        <mxCell id="jYkc-1DQ9nDgup6ayknT-203" value="&lt;b&gt;inet_recvmsg&lt;/b&gt;" style="text;html=1;align=center;verticalAlign=middle;resizable=0;points=[];autosize=1;" vertex="1" parent="1">
          <mxGeometry x="1040" y="-592.5" width="90" height="20" as="geometry" />
        </mxCell>
        <mxCell id="jYkc-1DQ9nDgup6ayknT-204" value="sk-&amp;gt;sk_prot-&amp;gt;recvmsg" style="rounded=1;whiteSpace=wrap;html=1;align=center;fontStyle=0;dashed=1;shadow=1;glass=0;" vertex="1" parent="1">
          <mxGeometry x="1088" y="-567.5" width="147.37" height="25" as="geometry" />
        </mxCell>
        <mxCell id="jYkc-1DQ9nDgup6ayknT-205" value="" style="endArrow=classic;html=1;" edge="1" parent="1" source="jYkc-1DQ9nDgup6ayknT-180" target="jYkc-1DQ9nDgup6ayknT-187">
          <mxGeometry width="50" height="50" relative="1" as="geometry">
            <mxPoint x="820" y="-440" as="sourcePoint" />
            <mxPoint x="870" y="-490" as="targetPoint" />
            <Array as="points">
              <mxPoint x="822" y="-630" />
            </Array>
          </mxGeometry>
        </mxCell>
        <mxCell id="jYkc-1DQ9nDgup6ayknT-206" value="" style="endArrow=classic;html=1;exitX=0.25;exitY=1;exitDx=0;exitDy=0;entryX=0.333;entryY=0.125;entryDx=0;entryDy=0;entryPerimeter=0;" edge="1" parent="1" source="jYkc-1DQ9nDgup6ayknT-200" target="jYkc-1DQ9nDgup6ayknT-203">
          <mxGeometry width="50" height="50" relative="1" as="geometry">
            <mxPoint x="869.4133333333332" y="-644.9999999999998" as="sourcePoint" />
            <mxPoint x="832" y="-580.0000000000002" as="targetPoint" />
            <Array as="points">
              <mxPoint x="1070" y="-630" />
            </Array>
          </mxGeometry>
        </mxCell>
        <mxCell id="jYkc-1DQ9nDgup6ayknT-207" value="" style="shape=step;perimeter=stepPerimeter;whiteSpace=wrap;html=1;fixedSize=1;size=-10;shadow=1;rounded=1;" vertex="1" parent="1">
          <mxGeometry x="1033.31" y="-430" width="215.37" height="100" as="geometry" />
        </mxCell>
        <mxCell id="jYkc-1DQ9nDgup6ayknT-208" value="&lt;b&gt;udp_recvmsg&lt;/b&gt;" style="text;html=1;align=center;verticalAlign=middle;resizable=0;points=[];autosize=1;" vertex="1" parent="1">
          <mxGeometry x="1043.31" y="-430" width="90" height="20" as="geometry" />
        </mxCell>
        <mxCell id="jYkc-1DQ9nDgup6ayknT-209" value="skb_copy_datagram_msg" style="rounded=1;whiteSpace=wrap;html=1;align=center;fontStyle=0;dashed=1;shadow=1;glass=0;" vertex="1" parent="1">
          <mxGeometry x="1045.37" y="-370" width="147.37" height="25" as="geometry" />
        </mxCell>
        <mxCell id="jYkc-1DQ9nDgup6ayknT-210" value="sk-&amp;gt;sk_receive_queue" style="rounded=1;whiteSpace=wrap;html=1;align=center;fontStyle=0;dashed=1;shadow=1;glass=0;fillColor=#f5f5f5;strokeColor=#666666;gradientColor=#b3b3b3;" vertex="1" parent="1">
          <mxGeometry x="1084.69" y="-400" width="147.37" height="25" as="geometry" />
        </mxCell>
        <mxCell id="jYkc-1DQ9nDgup6ayknT-214" value="skb" style="rounded=1;whiteSpace=wrap;html=1;shadow=1;fontStyle=1;glass=0;comic=0;fillColor=#f5f5f5;strokeColor=#666666;gradientColor=#b3b3b3;" vertex="1" parent="1">
          <mxGeometry x="977.37" y="-292.5" width="77.5" height="40" as="geometry" />
        </mxCell>
        <mxCell id="jYkc-1DQ9nDgup6ayknT-215" value="skb" style="rounded=1;whiteSpace=wrap;html=1;shadow=1;fontStyle=1;glass=0;comic=0;fillColor=#f5f5f5;strokeColor=#666666;gradientColor=#b3b3b3;" vertex="1" parent="1">
          <mxGeometry x="987.37" y="-282.5" width="77.5" height="40" as="geometry" />
        </mxCell>
        <mxCell id="jYkc-1DQ9nDgup6ayknT-216" value="skb" style="rounded=1;whiteSpace=wrap;html=1;shadow=1;fontStyle=1;glass=0;comic=0;fillColor=#f5f5f5;strokeColor=#666666;gradientColor=#b3b3b3;" vertex="1" parent="1">
          <mxGeometry x="997.37" y="-272.5" width="77.5" height="40" as="geometry" />
        </mxCell>
        <mxCell id="jYkc-1DQ9nDgup6ayknT-217" value="" style="endArrow=classic;html=1;entryX=0;entryY=0.5;entryDx=0;entryDy=0;exitX=1;exitY=0.5;exitDx=0;exitDy=0;" edge="1" parent="1" source="jYkc-1DQ9nDgup6ayknT-174" target="jYkc-1DQ9nDgup6ayknT-214">
          <mxGeometry width="50" height="50" relative="1" as="geometry">
            <mxPoint x="750" y="-200" as="sourcePoint" />
            <mxPoint x="800" y="-250" as="targetPoint" />
            <Array as="points">
              <mxPoint x="890" y="-200" />
              <mxPoint x="890" y="-273" />
            </Array>
          </mxGeometry>
        </mxCell>
        <mxCell id="jYkc-1DQ9nDgup6ayknT-218" value="" style="endArrow=classic;html=1;entryX=0.5;entryY=0;entryDx=0;entryDy=0;exitX=0;exitY=0.5;exitDx=0;exitDy=0;" edge="1" parent="1" source="jYkc-1DQ9nDgup6ayknT-210" target="jYkc-1DQ9nDgup6ayknT-214">
          <mxGeometry width="50" height="50" relative="1" as="geometry">
            <mxPoint x="860" y="-230" as="sourcePoint" />
            <mxPoint x="910" y="-280" as="targetPoint" />
            <Array as="points">
              <mxPoint x="1016" y="-388" />
            </Array>
          </mxGeometry>
        </mxCell>
        <mxCell id="jYkc-1DQ9nDgup6ayknT-219" value="" style="shape=step;perimeter=stepPerimeter;whiteSpace=wrap;html=1;fixedSize=1;size=-10;shadow=1;rounded=1;" vertex="1" parent="1">
          <mxGeometry x="1041.0000000000002" y="-30" width="220" height="155" as="geometry" />
        </mxCell>
        <mxCell id="jYkc-1DQ9nDgup6ayknT-220" value="&lt;span&gt;&lt;b&gt;ip_output&lt;/b&gt;&lt;/span&gt;" style="text;html=1;align=center;verticalAlign=middle;resizable=0;points=[];autosize=1;" vertex="1" parent="1">
          <mxGeometry x="1044.1800000000003" y="-30" width="70" height="20" as="geometry" />
        </mxCell>
        <mxCell id="jYkc-1DQ9nDgup6ayknT-221" value="NF_INET_POST_ROUTING" style="rounded=1;whiteSpace=wrap;html=1;align=center;fontStyle=0;dashed=1;shadow=1;glass=0;fillColor=#bac8d3;strokeColor=#23445d;" vertex="1" parent="1">
          <mxGeometry x="1055.68" y="15" width="180" height="25" as="geometry" />
        </mxCell>
        <mxCell id="jYkc-1DQ9nDgup6ayknT-222" value="GSO" style="rounded=1;whiteSpace=wrap;html=1;align=center;fontStyle=0;dashed=1;shadow=1;glass=0;" vertex="1" parent="1">
          <mxGeometry x="1054.18" y="47" width="97.75" height="25" as="geometry" />
        </mxCell>
        <mxCell id="jYkc-1DQ9nDgup6ayknT-224" value="neigh_output" style="rounded=1;whiteSpace=wrap;html=1;align=center;fontStyle=0;dashed=1;shadow=1;glass=0;" vertex="1" parent="1">
          <mxGeometry x="1126.93" y="78" width="97.75" height="25" as="geometry" />
        </mxCell>
        <mxCell id="jYkc-1DQ9nDgup6ayknT-226" value="" style="shape=step;perimeter=stepPerimeter;whiteSpace=wrap;html=1;fixedSize=1;size=-10;shadow=1;rounded=1;" vertex="1" parent="1">
          <mxGeometry x="1299.3200000000002" y="-30" width="220" height="125" as="geometry" />
        </mxCell>
        <mxCell id="jYkc-1DQ9nDgup6ayknT-227" value="&lt;b&gt;dev_queue_xmit&lt;/b&gt;" style="text;html=1;align=center;verticalAlign=middle;resizable=0;points=[];autosize=1;" vertex="1" parent="1">
          <mxGeometry x="1299.3200000000002" y="-30" width="110" height="20" as="geometry" />
        </mxCell>
        <mxCell id="jYkc-1DQ9nDgup6ayknT-229" value="netdev_pick_tx" style="rounded=1;whiteSpace=wrap;html=1;align=center;fontStyle=0;dashed=1;shadow=1;glass=0;" vertex="1" parent="1">
          <mxGeometry x="1385.25" y="30" width="97.75" height="25" as="geometry" />
        </mxCell>
        <mxCell id="jYkc-1DQ9nDgup6ayknT-230" value="q-&amp;gt;enqueue" style="rounded=1;whiteSpace=wrap;html=1;align=center;fontStyle=0;dashed=1;shadow=1;glass=0;" vertex="1" parent="1">
          <mxGeometry x="1314" y="60" width="97.75" height="25" as="geometry" />
        </mxCell>
        <mxCell id="jYkc-1DQ9nDgup6ayknT-231" value="TC egress" style="rounded=1;whiteSpace=wrap;html=1;align=center;fontStyle=3;dashed=1;shadow=1;glass=0;fillColor=#f5f5f5;strokeColor=#666666;fontColor=#333333;" vertex="1" parent="1">
          <mxGeometry x="1314" width="90" height="25" as="geometry" />
        </mxCell>
        <mxCell id="jYkc-1DQ9nDgup6ayknT-238" value="" style="shape=step;perimeter=stepPerimeter;whiteSpace=wrap;html=1;fixedSize=1;size=-10;shadow=1;rounded=1;" vertex="1" parent="1">
          <mxGeometry x="1299.31" y="125" width="220" height="135" as="geometry" />
        </mxCell>
        <mxCell id="jYkc-1DQ9nDgup6ayknT-239" value="&lt;b&gt;qdisc_run&lt;/b&gt;" style="text;html=1;align=center;verticalAlign=middle;resizable=0;points=[];autosize=1;" vertex="1" parent="1">
          <mxGeometry x="1299.3200000000002" y="125" width="70" height="20" as="geometry" />
        </mxCell>
        <mxCell id="jYkc-1DQ9nDgup6ayknT-240" value="__skb_dequeue(&amp;amp;q-&amp;gt;gso_skb)" style="rounded=1;whiteSpace=wrap;html=1;align=center;fontStyle=0;dashed=1;shadow=1;glass=0;" vertex="1" parent="1">
          <mxGeometry x="1314" y="155" width="186" height="25" as="geometry" />
        </mxCell>
        <mxCell id="jYkc-1DQ9nDgup6ayknT-241" value="skb_get_tx_queue" style="rounded=1;whiteSpace=wrap;html=1;align=center;fontStyle=0;dashed=1;shadow=1;glass=0;" vertex="1" parent="1">
          <mxGeometry x="1383.9899999999998" y="220" width="116.01" height="25" as="geometry" />
        </mxCell>
        <mxCell id="jYkc-1DQ9nDgup6ayknT-243" value="" style="shape=step;perimeter=stepPerimeter;whiteSpace=wrap;html=1;fixedSize=1;size=-10;shadow=1;rounded=1;" vertex="1" parent="1">
          <mxGeometry x="1300" y="290" width="220" height="35" as="geometry" />
        </mxCell>
        <mxCell id="jYkc-1DQ9nDgup6ayknT-244" value="&lt;b&gt;sch_direct_xmit&lt;/b&gt;" style="text;html=1;align=center;verticalAlign=middle;resizable=0;points=[];autosize=1;" vertex="1" parent="1">
          <mxGeometry x="1300.0000000000002" y="290" width="110" height="20" as="geometry" />
        </mxCell>
        <mxCell id="jYkc-1DQ9nDgup6ayknT-248" value="" style="shape=step;perimeter=stepPerimeter;whiteSpace=wrap;html=1;fixedSize=1;size=-10;shadow=1;rounded=1;" vertex="1" parent="1">
          <mxGeometry x="779.69" y="120" width="220" height="100" as="geometry" />
        </mxCell>
        <mxCell id="jYkc-1DQ9nDgup6ayknT-249" value="&lt;b&gt;__netif_schedule&lt;/b&gt;" style="text;html=1;align=center;verticalAlign=middle;resizable=0;points=[];autosize=1;" vertex="1" parent="1">
          <mxGeometry x="779.6900000000003" y="120" width="110" height="20" as="geometry" />
        </mxCell>
        <mxCell id="jYkc-1DQ9nDgup6ayknT-250" value="sd-&amp;gt;output_queue_tailp = q" style="rounded=1;whiteSpace=wrap;html=1;align=center;fontStyle=0;dashed=1;shadow=1;glass=0;" vertex="1" parent="1">
          <mxGeometry x="796.56" y="150" width="163.13" height="25" as="geometry" />
        </mxCell>
        <mxCell id="jYkc-1DQ9nDgup6ayknT-251" value="NET_TX_SOFTIRQ" style="rounded=1;whiteSpace=wrap;html=1;align=center;fontStyle=0;dashed=1;shadow=1;glass=0;fillColor=#f5f5f5;strokeColor=#666666;fontColor=#333333;" vertex="1" parent="1">
          <mxGeometry x="839.74" y="185" width="155.32" height="25" as="geometry" />
        </mxCell>
        <mxCell id="jYkc-1DQ9nDgup6ayknT-253" value="" style="shape=step;perimeter=stepPerimeter;whiteSpace=wrap;html=1;fixedSize=1;size=-10;shadow=1;rounded=1;" vertex="1" parent="1">
          <mxGeometry x="1300" y="425" width="180" height="70" as="geometry" />
        </mxCell>
        <mxCell id="jYkc-1DQ9nDgup6ayknT-254" value="&lt;b&gt;dev_hard_start_xmit&lt;/b&gt;" style="text;html=1;align=center;verticalAlign=middle;resizable=0;points=[];autosize=1;" vertex="1" parent="1">
          <mxGeometry x="1300.0000000000002" y="425" width="130" height="20" as="geometry" />
        </mxCell>
        <mxCell id="jYkc-1DQ9nDgup6ayknT-256" value="ops-&amp;gt;ndo_start_xmit" style="rounded=1;whiteSpace=wrap;html=1;align=center;fontStyle=0;dashed=1;shadow=1;glass=0;" vertex="1" parent="1">
          <mxGeometry x="1314.67" y="451.5" width="126" height="25" as="geometry" />
        </mxCell>
        <mxCell id="jYkc-1DQ9nDgup6ayknT-259" value="" style="shape=step;perimeter=stepPerimeter;whiteSpace=wrap;html=1;fixedSize=1;size=-10;shadow=1;rounded=1;" vertex="1" parent="1">
          <mxGeometry x="1041" y="150" width="220" height="70" as="geometry" />
        </mxCell>
        <mxCell id="jYkc-1DQ9nDgup6ayknT-260" value="&lt;b&gt;dev_requeue_skb&lt;/b&gt;" style="text;html=1;align=center;verticalAlign=middle;resizable=0;points=[];autosize=1;" vertex="1" parent="1">
          <mxGeometry x="1047.3200000000002" y="152.5" width="120" height="20" as="geometry" />
        </mxCell>
        <mxCell id="jYkc-1DQ9nDgup6ayknT-261" value="__skb_queue_tail(&amp;amp;q-&amp;gt;gso_skb, skb)" style="rounded=1;whiteSpace=wrap;html=1;align=center;fontStyle=0;dashed=1;shadow=1;glass=0;" vertex="1" parent="1">
          <mxGeometry x="1048.34" y="182.5" width="205.33" height="25" as="geometry" />
        </mxCell>
        <mxCell id="jYkc-1DQ9nDgup6ayknT-262" value="q-&amp;gt;dequeue" style="rounded=1;whiteSpace=wrap;html=1;align=center;fontStyle=0;dashed=1;shadow=1;glass=0;" vertex="1" parent="1">
          <mxGeometry x="1314" y="187.5" width="97.75" height="25" as="geometry" />
        </mxCell>
        <mxCell id="jYkc-1DQ9nDgup6ayknT-263" value="" style="endArrow=classic;html=1;exitX=0.5;exitY=1;exitDx=0;exitDy=0;entryX=0.5;entryY=0;entryDx=0;entryDy=0;" edge="1" parent="1" source="jYkc-1DQ9nDgup6ayknT-238" target="jYkc-1DQ9nDgup6ayknT-243">
          <mxGeometry width="50" height="50" relative="1" as="geometry">
            <mxPoint x="1310" y="280" as="sourcePoint" />
            <mxPoint x="1360" y="230" as="targetPoint" />
          </mxGeometry>
        </mxCell>
        <mxCell id="jYkc-1DQ9nDgup6ayknT-264" value="" style="endArrow=classic;html=1;entryX=1;entryY=0.5;entryDx=0;entryDy=0;exitX=0;exitY=0.5;exitDx=0;exitDy=0;" edge="1" parent="1" source="jYkc-1DQ9nDgup6ayknT-243" target="jYkc-1DQ9nDgup6ayknT-259">
          <mxGeometry width="50" height="50" relative="1" as="geometry">
            <mxPoint x="1310" y="280" as="sourcePoint" />
            <mxPoint x="1360" y="230" as="targetPoint" />
            <Array as="points">
              <mxPoint x="1280" y="308" />
              <mxPoint x="1280" y="185" />
            </Array>
          </mxGeometry>
        </mxCell>
        <mxCell id="jYkc-1DQ9nDgup6ayknT-266" value="" style="endArrow=classic;html=1;exitX=0.5;exitY=1;exitDx=0;exitDy=0;entryX=0.846;entryY=0;entryDx=0;entryDy=0;entryPerimeter=0;" edge="1" parent="1" source="jYkc-1DQ9nDgup6ayknT-243" target="jYkc-1DQ9nDgup6ayknT-254">
          <mxGeometry width="50" height="50" relative="1" as="geometry">
            <mxPoint x="1310" y="280" as="sourcePoint" />
            <mxPoint x="1360" y="230" as="targetPoint" />
          </mxGeometry>
        </mxCell>
        <mxCell id="jYkc-1DQ9nDgup6ayknT-268" value="" style="endArrow=classic;html=1;exitX=0;exitY=0.25;exitDx=0;exitDy=0;entryX=1;entryY=0.25;entryDx=0;entryDy=0;" edge="1" parent="1" source="jYkc-1DQ9nDgup6ayknT-238" target="jYkc-1DQ9nDgup6ayknT-248">
          <mxGeometry width="50" height="50" relative="1" as="geometry">
            <mxPoint x="1120" y="330" as="sourcePoint" />
            <mxPoint x="1170" y="280" as="targetPoint" />
            <Array as="points">
              <mxPoint x="1290" y="140" />
              <mxPoint x="1020" y="140" />
            </Array>
          </mxGeometry>
        </mxCell>
        <mxCell id="jYkc-1DQ9nDgup6ayknT-269" value="" style="endArrow=classic;html=1;exitX=0;exitY=0.25;exitDx=0;exitDy=0;" edge="1" parent="1" source="jYkc-1DQ9nDgup6ayknT-259" target="jYkc-1DQ9nDgup6ayknT-248">
          <mxGeometry width="50" height="50" relative="1" as="geometry">
            <mxPoint x="1170" y="390" as="sourcePoint" />
            <mxPoint x="1220" y="340" as="targetPoint" />
          </mxGeometry>
        </mxCell>
        <mxCell id="jYkc-1DQ9nDgup6ayknT-270" value="" style="shape=step;perimeter=stepPerimeter;whiteSpace=wrap;html=1;fixedSize=1;size=-10;shadow=1;rounded=1;" vertex="1" parent="1">
          <mxGeometry x="1041" y="245" width="212.32" height="172.5" as="geometry" />
        </mxCell>
        <mxCell id="jYkc-1DQ9nDgup6ayknT-271" value="&lt;b&gt;net_tx_action&lt;/b&gt;" style="text;html=1;align=center;verticalAlign=middle;resizable=0;points=[];autosize=1;" vertex="1" parent="1">
          <mxGeometry x="1051.0000000000002" y="245" width="90" height="20" as="geometry" />
        </mxCell>
        <mxCell id="jYkc-1DQ9nDgup6ayknT-272" value="sd-&amp;gt;completion_queue" style="rounded=1;whiteSpace=wrap;html=1;align=center;fontStyle=0;dashed=1;shadow=1;glass=0;" vertex="1" parent="1">
          <mxGeometry x="1051.6599999999999" y="272.5" width="163.13" height="25" as="geometry" />
        </mxCell>
        <mxCell id="jYkc-1DQ9nDgup6ayknT-273" value="__kfree_skb" style="rounded=1;whiteSpace=wrap;html=1;align=center;fontStyle=0;dashed=1;shadow=1;glass=0;" vertex="1" parent="1">
          <mxGeometry x="1101.05" y="310" width="132.27" height="25" as="geometry" />
        </mxCell>
        <mxCell id="jYkc-1DQ9nDgup6ayknT-274" value="sd-&amp;gt;output_queue" style="rounded=1;whiteSpace=wrap;html=1;align=center;fontStyle=0;dashed=1;shadow=1;glass=0;" vertex="1" parent="1">
          <mxGeometry x="1051.6599999999999" y="343.75" width="163.13" height="25" as="geometry" />
        </mxCell>
        <mxCell id="jYkc-1DQ9nDgup6ayknT-275" value="qdisc_run" style="rounded=1;whiteSpace=wrap;html=1;align=center;fontStyle=0;dashed=1;shadow=1;glass=0;" vertex="1" parent="1">
          <mxGeometry x="1101.05" y="377.5" width="132.27" height="25" as="geometry" />
        </mxCell>
        <mxCell id="jYkc-1DQ9nDgup6ayknT-276" value="NET_TX_SOFTIRQ" style="shape=step;perimeter=stepPerimeter;whiteSpace=wrap;html=1;fixedSize=1;shadow=1;fontStyle=3" vertex="1" parent="1">
          <mxGeometry x="803.12" y="270" width="150" height="40" as="geometry" />
        </mxCell>
        <mxCell id="jYkc-1DQ9nDgup6ayknT-277" value="" style="endArrow=classic;html=1;entryX=0.5;entryY=0;entryDx=0;entryDy=0;exitX=0.445;exitY=1.027;exitDx=0;exitDy=0;exitPerimeter=0;dashed=1;" edge="1" parent="1" source="jYkc-1DQ9nDgup6ayknT-248" target="jYkc-1DQ9nDgup6ayknT-276">
          <mxGeometry width="50" height="50" relative="1" as="geometry">
            <mxPoint x="950" y="460" as="sourcePoint" />
            <mxPoint x="1000" y="410" as="targetPoint" />
          </mxGeometry>
        </mxCell>
        <mxCell id="jYkc-1DQ9nDgup6ayknT-278" value="" style="endArrow=classic;html=1;entryX=0;entryY=0.25;entryDx=0;entryDy=0;exitX=1;exitY=0.5;exitDx=0;exitDy=0;" edge="1" parent="1" source="jYkc-1DQ9nDgup6ayknT-276" target="jYkc-1DQ9nDgup6ayknT-270">
          <mxGeometry width="50" height="50" relative="1" as="geometry">
            <mxPoint x="950" y="490" as="sourcePoint" />
            <mxPoint x="1000" y="440" as="targetPoint" />
          </mxGeometry>
        </mxCell>
        <mxCell id="jYkc-1DQ9nDgup6ayknT-279" value="" style="endArrow=classic;html=1;exitX=1;exitY=0.75;exitDx=0;exitDy=0;entryX=1;entryY=0.5;entryDx=0;entryDy=0;" edge="1" parent="1" source="jYkc-1DQ9nDgup6ayknT-270" target="jYkc-1DQ9nDgup6ayknT-238">
          <mxGeometry width="50" height="50" relative="1" as="geometry">
            <mxPoint x="950" y="400" as="sourcePoint" />
            <mxPoint x="1000" y="350" as="targetPoint" />
            <Array as="points">
              <mxPoint x="1519" y="374" />
              <mxPoint x="1560" y="374" />
              <mxPoint x="1560" y="193" />
            </Array>
          </mxGeometry>
        </mxCell>
        <mxCell id="jYkc-1DQ9nDgup6ayknT-280" value="" style="ellipse;whiteSpace=wrap;html=1;aspect=fixed;shadow=1;glass=0;comic=1;strokeWidth=2;gradientColor=#ffffff;" vertex="1" parent="1">
          <mxGeometry x="1364.31" y="820" width="90" height="90" as="geometry" />
        </mxCell>
        <mxCell id="jYkc-1DQ9nDgup6ayknT-281" value="" style="edgeStyle=orthogonalEdgeStyle;rounded=0;orthogonalLoop=1;jettySize=auto;html=1;endArrow=none;endFill=0;startArrow=classic;startFill=1;" edge="1" parent="1" source="jYkc-1DQ9nDgup6ayknT-283">
          <mxGeometry relative="1" as="geometry">
            <mxPoint x="1409.3099999999997" y="910" as="targetPoint" />
          </mxGeometry>
        </mxCell>
        <mxCell id="jYkc-1DQ9nDgup6ayknT-282" value="DMA&amp;nbsp;" style="edgeLabel;html=1;align=center;verticalAlign=middle;resizable=0;points=[];" vertex="1" connectable="0" parent="jYkc-1DQ9nDgup6ayknT-281">
          <mxGeometry x="-0.04" y="-1" relative="1" as="geometry">
            <mxPoint as="offset" />
          </mxGeometry>
        </mxCell>
        <mxCell id="jYkc-1DQ9nDgup6ayknT-283" value="NIC&lt;br&gt;queue" style="shape=process;whiteSpace=wrap;html=1;backgroundOutline=1;rotation=0;shadow=1;rounded=1;glass=0;" vertex="1" parent="1">
          <mxGeometry x="1349.31" y="970" width="120" height="30" as="geometry" />
        </mxCell>
        <mxCell id="jYkc-1DQ9nDgup6ayknT-284" value="ring buffer" style="ellipse;whiteSpace=wrap;html=1;aspect=fixed;shadow=1;" vertex="1" parent="1">
          <mxGeometry x="1369.31" y="825" width="80" height="80" as="geometry" />
        </mxCell>
        <mxCell id="jYkc-1DQ9nDgup6ayknT-285" value="" style="shape=step;perimeter=stepPerimeter;whiteSpace=wrap;html=1;fixedSize=1;size=-10;shadow=1;rounded=1;" vertex="1" parent="1">
          <mxGeometry x="1385" y="642.5" width="220" height="70" as="geometry" />
        </mxCell>
        <mxCell id="jYkc-1DQ9nDgup6ayknT-286" value="&lt;b&gt;__dev_kfree_skb_any&lt;/b&gt;" style="text;html=1;align=center;verticalAlign=middle;resizable=0;points=[];autosize=1;" vertex="1" parent="1">
          <mxGeometry x="1380.0000000000002" y="642.5" width="140" height="20" as="geometry" />
        </mxCell>
        <mxCell id="jYkc-1DQ9nDgup6ayknT-289" value="" style="shape=step;perimeter=stepPerimeter;whiteSpace=wrap;html=1;fixedSize=1;size=-10;shadow=1;rounded=1;" vertex="1" parent="1">
          <mxGeometry x="1141.65" y="608.5" width="220" height="104" as="geometry" />
        </mxCell>
        <mxCell id="jYkc-1DQ9nDgup6ayknT-290" value="&lt;b&gt;__dev_kfree_skb_irq&lt;/b&gt;" style="text;html=1;align=center;verticalAlign=middle;resizable=0;points=[];autosize=1;" vertex="1" parent="1">
          <mxGeometry x="1141.6500000000003" y="608.5" width="130" height="20" as="geometry" />
        </mxCell>
        <mxCell id="jYkc-1DQ9nDgup6ayknT-291" value="softnet_data.completion_queue" style="rounded=1;whiteSpace=wrap;html=1;align=center;fontStyle=0;dashed=1;shadow=1;glass=0;" vertex="1" parent="1">
          <mxGeometry x="1156.3200000000002" y="680" width="188.33" height="25" as="geometry" />
        </mxCell>
        <mxCell id="jYkc-1DQ9nDgup6ayknT-292" value="" style="shape=step;perimeter=stepPerimeter;whiteSpace=wrap;html=1;fixedSize=1;size=-10;shadow=1;rounded=1;" vertex="1" parent="1">
          <mxGeometry x="1297" y="-125" width="220" height="70" as="geometry" />
        </mxCell>
        <mxCell id="jYkc-1DQ9nDgup6ayknT-293" value="&lt;b&gt;consume_skb&lt;/b&gt;" style="text;html=1;align=center;verticalAlign=middle;resizable=0;points=[];autosize=1;" vertex="1" parent="1">
          <mxGeometry x="1312.0000000000002" y="-125" width="100" height="20" as="geometry" />
        </mxCell>
        <mxCell id="jYkc-1DQ9nDgup6ayknT-294" value="&lt;b&gt;__kfree_skb&lt;/b&gt;" style="rounded=1;whiteSpace=wrap;html=1;align=center;fontStyle=0;dashed=1;shadow=1;glass=0;" vertex="1" parent="1">
          <mxGeometry x="1311.67" y="-98.5" width="126" height="25" as="geometry" />
        </mxCell>
        <mxCell id="jYkc-1DQ9nDgup6ayknT-295" value="" style="shape=step;perimeter=stepPerimeter;whiteSpace=wrap;html=1;fixedSize=1;size=-10;shadow=1;rounded=1;" vertex="1" parent="1">
          <mxGeometry x="1298.68" y="-217.5" width="220" height="70" as="geometry" />
        </mxCell>
        <mxCell id="jYkc-1DQ9nDgup6ayknT-296" value="&lt;b&gt;__kfree_skb&lt;/b&gt;" style="text;html=1;align=center;verticalAlign=middle;resizable=0;points=[];autosize=1;" vertex="1" parent="1">
          <mxGeometry x="1323.6800000000003" y="-217.5" width="80" height="20" as="geometry" />
        </mxCell>
        <mxCell id="jYkc-1DQ9nDgup6ayknT-297" value="kfree_skbmem" style="rounded=1;whiteSpace=wrap;html=1;align=center;fontStyle=0;dashed=1;shadow=1;glass=0;" vertex="1" parent="1">
          <mxGeometry x="1313.3500000000001" y="-191" width="126" height="25" as="geometry" />
        </mxCell>
        <mxCell id="jYkc-1DQ9nDgup6ayknT-298" value="" style="shape=step;perimeter=stepPerimeter;whiteSpace=wrap;html=1;fixedSize=1;size=-10;shadow=1;rounded=1;" vertex="1" parent="1">
          <mxGeometry x="1298.68" y="-310" width="220" height="70" as="geometry" />
        </mxCell>
        <mxCell id="jYkc-1DQ9nDgup6ayknT-299" value="&lt;b&gt;kfree_skb&lt;/b&gt;" style="text;html=1;align=center;verticalAlign=middle;resizable=0;points=[];autosize=1;" vertex="1" parent="1">
          <mxGeometry x="1313.3500000000001" y="-310" width="70" height="20" as="geometry" />
        </mxCell>
        <mxCell id="jYkc-1DQ9nDgup6ayknT-300" value="&lt;b&gt;__kfree_skb&lt;/b&gt;" style="rounded=1;whiteSpace=wrap;html=1;align=center;fontStyle=0;dashed=1;shadow=1;glass=0;" vertex="1" parent="1">
          <mxGeometry x="1313.3500000000001" y="-283.5" width="126" height="25" as="geometry" />
        </mxCell>
        <mxCell id="jYkc-1DQ9nDgup6ayknT-301" value="" style="shape=step;perimeter=stepPerimeter;whiteSpace=wrap;html=1;fixedSize=1;size=-10;shadow=1;rounded=1;" vertex="1" parent="1">
          <mxGeometry x="1490" y="425" width="170" height="70" as="geometry" />
        </mxCell>
        <mxCell id="jYkc-1DQ9nDgup6ayknT-302" value="&lt;b&gt;dev_kfree_skb&lt;/b&gt;" style="text;html=1;align=center;verticalAlign=middle;resizable=0;points=[];autosize=1;" vertex="1" parent="1">
          <mxGeometry x="1505.0000000000002" y="425" width="100" height="20" as="geometry" />
        </mxCell>
        <mxCell id="jYkc-1DQ9nDgup6ayknT-303" value="consume_skb" style="rounded=1;whiteSpace=wrap;html=1;align=center;fontStyle=0;dashed=1;shadow=1;glass=0;" vertex="1" parent="1">
          <mxGeometry x="1504.67" y="451.5" width="126" height="25" as="geometry" />
        </mxCell>
        <mxCell id="jYkc-1DQ9nDgup6ayknT-304" value="NET_TX_SOFTIRQ" style="rounded=1;whiteSpace=wrap;html=1;align=center;fontStyle=0;dashed=1;shadow=1;glass=0;fillColor=#f5f5f5;strokeColor=#666666;fontColor=#333333;" vertex="1" parent="1">
          <mxGeometry x="1156.65" y="642.5" width="155.32" height="25" as="geometry" />
        </mxCell>
        <mxCell id="jYkc-1DQ9nDgup6ayknT-305" value="in_irq() || irqs_disabled()" style="rounded=1;whiteSpace=wrap;html=1;align=center;fontStyle=0;dashed=1;shadow=1;glass=0;" vertex="1" parent="1">
          <mxGeometry x="1400.83" y="673" width="188.33" height="25" as="geometry" />
        </mxCell>
        <mxCell id="jYkc-1DQ9nDgup6ayknT-306" value="skb" style="rounded=1;whiteSpace=wrap;html=1;shadow=1;fontStyle=1;glass=0;comic=0;fillColor=#f5f5f5;strokeColor=#666666;gradientColor=#b3b3b3;" vertex="1" parent="1">
          <mxGeometry x="1167.3200000000002" y="502.5" width="77.5" height="40" as="geometry" />
        </mxCell>
        <mxCell id="jYkc-1DQ9nDgup6ayknT-307" value="skb" style="rounded=1;whiteSpace=wrap;html=1;shadow=1;fontStyle=1;glass=0;comic=0;fillColor=#f5f5f5;strokeColor=#666666;gradientColor=#b3b3b3;" vertex="1" parent="1">
          <mxGeometry x="1177.3200000000002" y="512.5" width="77.5" height="40" as="geometry" />
        </mxCell>
        <mxCell id="jYkc-1DQ9nDgup6ayknT-308" value="skb" style="rounded=1;whiteSpace=wrap;html=1;shadow=1;fontStyle=1;glass=0;comic=0;fillColor=#f5f5f5;strokeColor=#666666;gradientColor=#b3b3b3;" vertex="1" parent="1">
          <mxGeometry x="1187.3200000000002" y="522.5" width="77.5" height="40" as="geometry" />
        </mxCell>
        <mxCell id="jYkc-1DQ9nDgup6ayknT-309" value="" style="endArrow=classic;html=1;entryX=0;entryY=0.75;entryDx=0;entryDy=0;exitX=0.85;exitY=0.05;exitDx=0;exitDy=0;exitPerimeter=0;" edge="1" parent="1" source="jYkc-1DQ9nDgup6ayknT-32" target="jYkc-1DQ9nDgup6ayknT-306">
          <mxGeometry width="50" height="50" relative="1" as="geometry">
            <mxPoint x="1110" y="370" as="sourcePoint" />
            <mxPoint x="1160" y="320" as="targetPoint" />
          </mxGeometry>
        </mxCell>
        <mxCell id="jYkc-1DQ9nDgup6ayknT-310" value="&lt;span style=&quot;font-size: 12px ; background-color: rgb(248 , 249 , 250)&quot;&gt;completion_queue&lt;/span&gt;" style="edgeLabel;html=1;align=center;verticalAlign=middle;resizable=0;points=[];fontStyle=3" vertex="1" connectable="0" parent="jYkc-1DQ9nDgup6ayknT-309">
          <mxGeometry x="-0.0716" y="3" relative="1" as="geometry">
            <mxPoint x="-1" y="1" as="offset" />
          </mxGeometry>
        </mxCell>
        <mxCell id="jYkc-1DQ9nDgup6ayknT-311" value="skb" style="rounded=1;whiteSpace=wrap;html=1;shadow=1;fontStyle=1;glass=0;comic=0;fillColor=#f5f5f5;strokeColor=#666666;gradientColor=#b3b3b3;" vertex="1" parent="1">
          <mxGeometry x="1041.0000000000002" y="440" width="77.5" height="40" as="geometry" />
        </mxCell>
        <mxCell id="jYkc-1DQ9nDgup6ayknT-312" value="skb" style="rounded=1;whiteSpace=wrap;html=1;shadow=1;fontStyle=1;glass=0;comic=0;fillColor=#f5f5f5;strokeColor=#666666;gradientColor=#b3b3b3;" vertex="1" parent="1">
          <mxGeometry x="1051.0000000000002" y="450" width="77.5" height="40" as="geometry" />
        </mxCell>
        <mxCell id="jYkc-1DQ9nDgup6ayknT-313" value="skb" style="rounded=1;whiteSpace=wrap;html=1;shadow=1;fontStyle=1;glass=0;comic=0;fillColor=#f5f5f5;strokeColor=#666666;gradientColor=#b3b3b3;" vertex="1" parent="1">
          <mxGeometry x="1061.0000000000002" y="460" width="77.5" height="40" as="geometry" />
        </mxCell>
        <mxCell id="jYkc-1DQ9nDgup6ayknT-314" value="" style="endArrow=classic;html=1;exitX=0.5;exitY=0;exitDx=0;exitDy=0;entryX=0;entryY=1;entryDx=0;entryDy=0;" edge="1" parent="1" source="jYkc-1DQ9nDgup6ayknT-32" target="jYkc-1DQ9nDgup6ayknT-312">
          <mxGeometry width="50" height="50" relative="1" as="geometry">
            <mxPoint x="1040" y="480" as="sourcePoint" />
            <mxPoint x="1090" y="430" as="targetPoint" />
            <Array as="points">
              <mxPoint x="911" y="490" />
            </Array>
          </mxGeometry>
        </mxCell>
        <mxCell id="jYkc-1DQ9nDgup6ayknT-315" value="&lt;span style=&quot;font-size: 12px ; background-color: rgb(248 , 249 , 250)&quot;&gt;output_queue&lt;/span&gt;" style="edgeLabel;html=1;align=center;verticalAlign=middle;resizable=0;points=[];fontStyle=3" vertex="1" connectable="0" parent="jYkc-1DQ9nDgup6ayknT-314">
          <mxGeometry x="0.2758" y="1" relative="1" as="geometry">
            <mxPoint as="offset" />
          </mxGeometry>
        </mxCell>
        <mxCell id="jYkc-1DQ9nDgup6ayknT-317" value="ethernet driver" style="shape=step;perimeter=stepPerimeter;whiteSpace=wrap;html=1;fixedSize=1;size=-10;shadow=1;rounded=1;dashed=1;" vertex="1" parent="1">
          <mxGeometry x="1297" y="520" width="220" height="70" as="geometry" />
        </mxCell>
        <mxCell id="jYkc-1DQ9nDgup6ayknT-320" value="" style="endArrow=classic;html=1;exitX=0.594;exitY=0.981;exitDx=0;exitDy=0;exitPerimeter=0;" edge="1" parent="1" source="jYkc-1DQ9nDgup6ayknT-253" target="jYkc-1DQ9nDgup6ayknT-317">
          <mxGeometry width="50" height="50" relative="1" as="geometry">
            <mxPoint x="1260" y="740" as="sourcePoint" />
            <mxPoint x="1310" y="690" as="targetPoint" />
          </mxGeometry>
        </mxCell>
        <mxCell id="jYkc-1DQ9nDgup6ayknT-322" value="" style="shape=step;perimeter=stepPerimeter;whiteSpace=wrap;html=1;fixedSize=1;size=-10;shadow=1;rounded=1;" vertex="1" parent="1">
          <mxGeometry x="1104.31" y="729.5" width="260" height="70" as="geometry" />
        </mxCell>
        <mxCell id="jYkc-1DQ9nDgup6ayknT-323" value="&lt;b&gt;napi_consume_skb&lt;/b&gt;" style="text;html=1;align=center;verticalAlign=middle;resizable=0;points=[];autosize=1;" vertex="1" parent="1">
          <mxGeometry x="1104.3100000000002" y="729.5" width="130" height="20" as="geometry" />
        </mxCell>
        <mxCell id="jYkc-1DQ9nDgup6ayknT-324" value="nc-&amp;gt;skb_cache[nc-&amp;gt;skb_count++] = skb" style="rounded=1;whiteSpace=wrap;html=1;align=center;fontStyle=0;dashed=1;shadow=1;glass=0;fillColor=#f5f5f5;strokeColor=#666666;gradientColor=#b3b3b3;" vertex="1" parent="1">
          <mxGeometry x="1109.8999999999999" y="764.5" width="244.16" height="25" as="geometry" />
        </mxCell>
        <mxCell id="jYkc-1DQ9nDgup6ayknT-327" value="" style="endArrow=classic;html=1;entryX=0.193;entryY=-0.029;entryDx=0;entryDy=0;entryPerimeter=0;exitX=0.75;exitY=1;exitDx=0;exitDy=0;" edge="1" parent="1" target="jYkc-1DQ9nDgup6ayknT-286">
          <mxGeometry width="50" height="50" relative="1" as="geometry">
            <mxPoint x="1407" y="590" as="sourcePoint" />
            <mxPoint x="1095" y="630" as="targetPoint" />
          </mxGeometry>
        </mxCell>
        <mxCell id="jYkc-1DQ9nDgup6ayknT-329" value="" style="endArrow=classic;html=1;exitX=1;exitY=0.5;exitDx=0;exitDy=0;entryX=0.5;entryY=0;entryDx=0;entryDy=0;" edge="1" parent="1" source="jYkc-1DQ9nDgup6ayknT-317" target="jYkc-1DQ9nDgup6ayknT-284">
          <mxGeometry width="50" height="50" relative="1" as="geometry">
            <mxPoint x="1100" y="620" as="sourcePoint" />
            <mxPoint x="1150" y="570" as="targetPoint" />
            <Array as="points">
              <mxPoint x="1640" y="555" />
              <mxPoint x="1640" y="770" />
              <mxPoint x="1409" y="770" />
            </Array>
          </mxGeometry>
        </mxCell>
        <mxCell id="jYkc-1DQ9nDgup6ayknT-330" value="" style="endArrow=classic;html=1;" edge="1" parent="1" target="jYkc-1DQ9nDgup6ayknT-289">
          <mxGeometry width="50" height="50" relative="1" as="geometry">
            <mxPoint x="1385" y="675" as="sourcePoint" />
            <mxPoint x="1150" y="540" as="targetPoint" />
          </mxGeometry>
        </mxCell>
        <mxCell id="jYkc-1DQ9nDgup6ayknT-331" value="" style="endArrow=classic;html=1;exitX=0;exitY=0.5;exitDx=0;exitDy=0;dashed=1;dashPattern=1 1;" edge="1" parent="1" source="jYkc-1DQ9nDgup6ayknT-289">
          <mxGeometry width="50" height="50" relative="1" as="geometry">
            <mxPoint x="1100" y="590" as="sourcePoint" />
            <mxPoint x="1120" y="530" as="targetPoint" />
            <Array as="points">
              <mxPoint x="1120" y="661" />
            </Array>
          </mxGeometry>
        </mxCell>
        <mxCell id="jYkc-1DQ9nDgup6ayknT-332" value="" style="endArrow=classic;html=1;exitX=1;exitY=0.75;exitDx=0;exitDy=0;entryX=1;entryY=0.5;entryDx=0;entryDy=0;" edge="1" parent="1" source="jYkc-1DQ9nDgup6ayknT-317" target="jYkc-1DQ9nDgup6ayknT-322">
          <mxGeometry width="50" height="50" relative="1" as="geometry">
            <mxPoint x="1100" y="590" as="sourcePoint" />
            <mxPoint x="1150" y="540" as="targetPoint" />
            <Array as="points">
              <mxPoint x="1630" y="573" />
              <mxPoint x="1630" y="740" />
              <mxPoint x="1400" y="740" />
            </Array>
          </mxGeometry>
        </mxCell>
        <mxCell id="jYkc-1DQ9nDgup6ayknT-333" value="skb" style="rounded=1;whiteSpace=wrap;html=1;shadow=1;fontStyle=1;glass=0;comic=0;fillColor=#f5f5f5;strokeColor=#666666;gradientColor=#b3b3b3;" vertex="1" parent="1">
          <mxGeometry x="1167.3200000000002" y="825" width="77.5" height="40" as="geometry" />
        </mxCell>
        <mxCell id="jYkc-1DQ9nDgup6ayknT-334" value="skb" style="rounded=1;whiteSpace=wrap;html=1;shadow=1;fontStyle=1;glass=0;comic=0;fillColor=#f5f5f5;strokeColor=#666666;gradientColor=#b3b3b3;" vertex="1" parent="1">
          <mxGeometry x="1177.3200000000002" y="835" width="77.5" height="40" as="geometry" />
        </mxCell>
        <mxCell id="jYkc-1DQ9nDgup6ayknT-335" value="skb" style="rounded=1;whiteSpace=wrap;html=1;shadow=1;fontStyle=1;glass=0;comic=0;fillColor=#f5f5f5;strokeColor=#666666;gradientColor=#b3b3b3;" vertex="1" parent="1">
          <mxGeometry x="1187.3200000000002" y="845" width="77.5" height="40" as="geometry" />
        </mxCell>
        <mxCell id="jYkc-1DQ9nDgup6ayknT-336" value="" style="endArrow=classic;html=1;entryX=0;entryY=0.5;entryDx=0;entryDy=0;exitX=0.078;exitY=1.046;exitDx=0;exitDy=0;exitPerimeter=0;" edge="1" parent="1" source="jYkc-1DQ9nDgup6ayknT-322" target="jYkc-1DQ9nDgup6ayknT-333">
          <mxGeometry width="50" height="50" relative="1" as="geometry">
            <mxPoint x="1100" y="860" as="sourcePoint" />
            <mxPoint x="1150" y="810" as="targetPoint" />
            <Array as="points">
              <mxPoint x="1125" y="845" />
            </Array>
          </mxGeometry>
        </mxCell>
        <mxCell id="jYkc-1DQ9nDgup6ayknT-337" value="" style="endArrow=classic;html=1;entryX=0.5;entryY=1;entryDx=0;entryDy=0;" edge="1" parent="1" target="jYkc-1DQ9nDgup6ayknT-301">
          <mxGeometry width="50" height="50" relative="1" as="geometry">
            <mxPoint x="1575" y="640" as="sourcePoint" />
            <mxPoint x="1150" y="570" as="targetPoint" />
          </mxGeometry>
        </mxCell>
        <mxCell id="jYkc-1DQ9nDgup6ayknT-338" value="" style="endArrow=classic;html=1;entryX=1;entryY=0.5;entryDx=0;entryDy=0;exitX=0.75;exitY=0;exitDx=0;exitDy=0;" edge="1" parent="1" source="jYkc-1DQ9nDgup6ayknT-301" target="jYkc-1DQ9nDgup6ayknT-292">
          <mxGeometry width="50" height="50" relative="1" as="geometry">
            <mxPoint x="1100" y="120" as="sourcePoint" />
            <mxPoint x="1150" y="70" as="targetPoint" />
            <Array as="points">
              <mxPoint x="1618" y="-90" />
            </Array>
          </mxGeometry>
        </mxCell>
        <mxCell id="jYkc-1DQ9nDgup6ayknT-339" value="" style="endArrow=classic;html=1;entryX=0.5;entryY=1;entryDx=0;entryDy=0;exitX=0.965;exitY=-0.043;exitDx=0;exitDy=0;exitPerimeter=0;" edge="1" parent="1" source="jYkc-1DQ9nDgup6ayknT-293" target="jYkc-1DQ9nDgup6ayknT-295">
          <mxGeometry width="50" height="50" relative="1" as="geometry">
            <mxPoint x="1222.32" y="-250" as="sourcePoint" />
            <mxPoint x="1272.32" y="-300" as="targetPoint" />
          </mxGeometry>
        </mxCell>
        <mxCell id="jYkc-1DQ9nDgup6ayknT-340" value="" style="endArrow=classic;html=1;" edge="1" parent="1">
          <mxGeometry width="50" height="50" relative="1" as="geometry">
            <mxPoint x="1407.32" y="-240" as="sourcePoint" />
            <mxPoint x="1407.32" y="-220" as="targetPoint" />
          </mxGeometry>
        </mxCell>
        <mxCell id="jYkc-1DQ9nDgup6ayknT-341" value="" style="endArrow=classic;html=1;" edge="1" parent="1">
          <mxGeometry width="50" height="50" relative="1" as="geometry">
            <mxPoint x="735" y="15" as="sourcePoint" />
            <mxPoint x="782" y="18" as="targetPoint" />
          </mxGeometry>
        </mxCell>
        <mxCell id="jYkc-1DQ9nDgup6ayknT-342" value="" style="endArrow=classic;html=1;entryX=0;entryY=0.25;entryDx=0;entryDy=0;exitX=0.999;exitY=0.375;exitDx=0;exitDy=0;exitPerimeter=0;" edge="1" parent="1" source="jYkc-1DQ9nDgup6ayknT-97" target="jYkc-1DQ9nDgup6ayknT-219">
          <mxGeometry width="50" height="50" relative="1" as="geometry">
            <mxPoint x="745" y="25" as="sourcePoint" />
            <mxPoint x="792" y="27.999999999999773" as="targetPoint" />
          </mxGeometry>
        </mxCell>
        <mxCell id="jYkc-1DQ9nDgup6ayknT-343" value="" style="endArrow=classic;html=1;exitX=1.017;exitY=0.174;exitDx=0;exitDy=0;exitPerimeter=0;entryX=0;entryY=0.25;entryDx=0;entryDy=0;" edge="1" parent="1" source="jYkc-1DQ9nDgup6ayknT-219" target="jYkc-1DQ9nDgup6ayknT-226">
          <mxGeometry width="50" height="50" relative="1" as="geometry">
            <mxPoint x="1420" y="160" as="sourcePoint" />
            <mxPoint x="1470" y="110" as="targetPoint" />
          </mxGeometry>
        </mxCell>
        <mxCell id="jYkc-1DQ9nDgup6ayknT-344" value="" style="endArrow=classic;html=1;exitX=0.5;exitY=1;exitDx=0;exitDy=0;entryX=0.5;entryY=0;entryDx=0;entryDy=0;" edge="1" parent="1" source="jYkc-1DQ9nDgup6ayknT-226" target="jYkc-1DQ9nDgup6ayknT-238">
          <mxGeometry width="50" height="50" relative="1" as="geometry">
            <mxPoint x="1380" y="160" as="sourcePoint" />
            <mxPoint x="1430" y="110" as="targetPoint" />
          </mxGeometry>
        </mxCell>
        <mxCell id="jYkc-1DQ9nDgup6ayknT-345" value="" style="endArrow=classic;html=1;exitX=1;exitY=0.75;exitDx=0;exitDy=0;entryX=1;entryY=0.5;entryDx=0;entryDy=0;" edge="1" parent="1" source="jYkc-1DQ9nDgup6ayknT-226" target="jYkc-1DQ9nDgup6ayknT-243">
          <mxGeometry width="50" height="50" relative="1" as="geometry">
            <mxPoint x="1380" y="130" as="sourcePoint" />
            <mxPoint x="1430" y="80" as="targetPoint" />
            <Array as="points">
              <mxPoint x="1540" y="70" />
              <mxPoint x="1540" y="308" />
            </Array>
          </mxGeometry>
        </mxCell>
        <mxCell id="jYkc-1DQ9nDgup6ayknT-346" value="" style="endArrow=classic;html=1;exitX=0.5;exitY=1;exitDx=0;exitDy=0;entryX=0.741;entryY=0;entryDx=0;entryDy=0;entryPerimeter=0;" edge="1" parent="1" source="jYkc-1DQ9nDgup6ayknT-202" target="jYkc-1DQ9nDgup6ayknT-208">
          <mxGeometry width="50" height="50" relative="1" as="geometry">
            <mxPoint x="1150" y="-470" as="sourcePoint" />
            <mxPoint x="1200" y="-520" as="targetPoint" />
            <Array as="points">
              <mxPoint x="1110" y="-500" />
            </Array>
          </mxGeometry>
        </mxCell>
        <mxCell id="jYkc-1DQ9nDgup6ayknT-348" value="" style="endArrow=classic;html=1;exitX=0.5;exitY=1;exitDx=0;exitDy=0;entryX=0.741;entryY=0;entryDx=0;entryDy=0;entryPerimeter=0;" edge="1" parent="1">
          <mxGeometry width="50" height="50" relative="1" as="geometry">
            <mxPoint x="910.935" y="-520.0000000000002" as="sourcePoint" />
            <mxPoint x="873.25" y="-427.5000000000002" as="targetPoint" />
            <Array as="points">
              <mxPoint x="873.25" y="-497.5" />
            </Array>
          </mxGeometry>
        </mxCell>
        <mxCell id="jYkc-1DQ9nDgup6ayknT-351" value="" style="shape=step;perimeter=stepPerimeter;whiteSpace=wrap;html=1;fixedSize=1;size=-10;shadow=1;rounded=1;" vertex="1" parent="1">
          <mxGeometry x="1274.6299999999999" y="-430" width="215.37" height="100" as="geometry" />
        </mxCell>
        <mxCell id="jYkc-1DQ9nDgup6ayknT-352" value="&lt;b&gt;udp_sendmsg&lt;/b&gt;" style="text;html=1;align=center;verticalAlign=middle;resizable=0;points=[];autosize=1;" vertex="1" parent="1">
          <mxGeometry x="1279.6299999999999" y="-430" width="100" height="20" as="geometry" />
        </mxCell>
        <mxCell id="jYkc-1DQ9nDgup6ayknT-353" value="ip_route_output_flow" style="rounded=1;whiteSpace=wrap;html=1;align=center;fontStyle=0;dashed=1;shadow=1;glass=0;" vertex="1" parent="1">
          <mxGeometry x="1285.32" y="-400" width="147.37" height="25" as="geometry" />
        </mxCell>
        <mxCell id="jYkc-1DQ9nDgup6ayknT-355" value="ip_local_out" style="rounded=1;whiteSpace=wrap;html=1;align=center;fontStyle=0;dashed=1;shadow=1;glass=0;" vertex="1" parent="1">
          <mxGeometry x="1315.35" y="-367.5" width="147.37" height="25" as="geometry" />
        </mxCell>
        <mxCell id="jYkc-1DQ9nDgup6ayknT-356" value="" style="shape=step;perimeter=stepPerimeter;whiteSpace=wrap;html=1;fixedSize=1;size=-10;shadow=1;rounded=1;" vertex="1" parent="1">
          <mxGeometry x="1043.3100000000002" y="-195" width="215.37" height="130" as="geometry" />
        </mxCell>
        <mxCell id="jYkc-1DQ9nDgup6ayknT-357" value="&lt;b&gt;ip_local_out&lt;/b&gt;" style="text;html=1;align=center;verticalAlign=middle;resizable=0;points=[];autosize=1;" vertex="1" parent="1">
          <mxGeometry x="1053.31" y="-195" width="90" height="20" as="geometry" />
        </mxCell>
        <mxCell id="jYkc-1DQ9nDgup6ayknT-359" value="dst_output" style="rounded=1;whiteSpace=wrap;html=1;align=center;fontStyle=0;dashed=1;shadow=1;glass=0;" vertex="1" parent="1">
          <mxGeometry x="1091.3200000000002" y="-122.5" width="147.37" height="25" as="geometry" />
        </mxCell>
        <mxCell id="jYkc-1DQ9nDgup6ayknT-360" value="NF_INET_LOCAL_OUT" style="rounded=1;whiteSpace=wrap;html=1;align=center;fontStyle=0;dashed=1;shadow=1;glass=0;fillColor=#bac8d3;strokeColor=#23445d;" vertex="1" parent="1">
          <mxGeometry x="1058.69" y="-165" width="180" height="25" as="geometry" />
        </mxCell>
        <mxCell id="jYkc-1DQ9nDgup6ayknT-361" value="" style="endArrow=classic;html=1;exitX=0.25;exitY=1;exitDx=0;exitDy=0;entryX=0.5;entryY=0;entryDx=0;entryDy=0;" edge="1" parent="1" source="jYkc-1DQ9nDgup6ayknT-351" target="jYkc-1DQ9nDgup6ayknT-356">
          <mxGeometry width="50" height="50" relative="1" as="geometry">
            <mxPoint x="1290" y="-190" as="sourcePoint" />
            <mxPoint x="1340" y="-240" as="targetPoint" />
            <Array as="points">
              <mxPoint x="1260" y="-310" />
              <mxPoint x="1150" y="-310" />
            </Array>
          </mxGeometry>
        </mxCell>
        <mxCell id="jYkc-1DQ9nDgup6ayknT-362" value="" style="endArrow=classic;html=1;exitX=0.5;exitY=1;exitDx=0;exitDy=0;" edge="1" parent="1" source="jYkc-1DQ9nDgup6ayknT-356" target="jYkc-1DQ9nDgup6ayknT-219">
          <mxGeometry width="50" height="50" relative="1" as="geometry">
            <mxPoint x="1290" y="-60" as="sourcePoint" />
            <mxPoint x="1340" y="-110" as="targetPoint" />
          </mxGeometry>
        </mxCell>
        <mxCell id="jYkc-1DQ9nDgup6ayknT-363" value="" style="shape=step;perimeter=stepPerimeter;whiteSpace=wrap;html=1;fixedSize=1;size=-10;shadow=1;rounded=1;" vertex="1" parent="1">
          <mxGeometry x="1297" y="-751.25" width="215.37" height="110" as="geometry" />
        </mxCell>
        <mxCell id="jYkc-1DQ9nDgup6ayknT-364" value="&lt;b&gt;SYSCALL_DEFINE3 (sendmsg ...)&lt;/b&gt;" style="text;html=1;align=center;verticalAlign=middle;resizable=0;points=[];autosize=1;" vertex="1" parent="1">
          <mxGeometry x="1293" y="-751.25" width="210" height="20" as="geometry" />
        </mxCell>
        <mxCell id="jYkc-1DQ9nDgup6ayknT-365" value="sock-&amp;gt;ops-&amp;gt;sendmsg" style="rounded=1;whiteSpace=wrap;html=1;align=center;fontStyle=0;dashed=1;shadow=1;glass=0;" vertex="1" parent="1">
          <mxGeometry x="1313.87" y="-681.25" width="158.5" height="25" as="geometry" />
        </mxCell>
        <mxCell id="jYkc-1DQ9nDgup6ayknT-366" value="sockfd_lookup_light" style="rounded=1;whiteSpace=wrap;html=1;align=center;fontStyle=0;dashed=1;shadow=1;glass=0;" vertex="1" parent="1">
          <mxGeometry x="1365" y="-711.25" width="127.37" height="25" as="geometry" />
        </mxCell>
        <mxCell id="jYkc-1DQ9nDgup6ayknT-367" value="" style="shape=step;perimeter=stepPerimeter;whiteSpace=wrap;html=1;fixedSize=1;size=-10;shadow=1;rounded=1;" vertex="1" parent="1">
          <mxGeometry x="1297" y="-593.75" width="215.37" height="70" as="geometry" />
        </mxCell>
        <mxCell id="jYkc-1DQ9nDgup6ayknT-368" value="&lt;b&gt;inet_sendmsg&lt;/b&gt;" style="text;html=1;align=center;verticalAlign=middle;resizable=0;points=[];autosize=1;" vertex="1" parent="1">
          <mxGeometry x="1292" y="-593.75" width="100" height="20" as="geometry" />
        </mxCell>
        <mxCell id="jYkc-1DQ9nDgup6ayknT-369" value="sk-&amp;gt;sk_prot-&amp;gt;sendmsg" style="rounded=1;whiteSpace=wrap;html=1;align=center;fontStyle=0;dashed=1;shadow=1;glass=0;" vertex="1" parent="1">
          <mxGeometry x="1345" y="-568.75" width="147.37" height="25" as="geometry" />
        </mxCell>
        <mxCell id="jYkc-1DQ9nDgup6ayknT-370" value="" style="endArrow=classic;html=1;exitX=0.25;exitY=1;exitDx=0;exitDy=0;entryX=0.333;entryY=0.125;entryDx=0;entryDy=0;entryPerimeter=0;" edge="1" parent="1" source="jYkc-1DQ9nDgup6ayknT-365" target="jYkc-1DQ9nDgup6ayknT-368">
          <mxGeometry width="50" height="50" relative="1" as="geometry">
            <mxPoint x="1126.4133333333332" y="-646.2499999999998" as="sourcePoint" />
            <mxPoint x="1089" y="-581.2500000000002" as="targetPoint" />
            <Array as="points">
              <mxPoint x="1327" y="-631.25" />
            </Array>
          </mxGeometry>
        </mxCell>
        <mxCell id="jYkc-1DQ9nDgup6ayknT-371" value="" style="endArrow=classic;html=1;exitX=0.5;exitY=1;exitDx=0;exitDy=0;entryX=0.741;entryY=0;entryDx=0;entryDy=0;entryPerimeter=0;" edge="1" parent="1">
          <mxGeometry width="50" height="50" relative="1" as="geometry">
            <mxPoint x="1403.995" y="-523.75" as="sourcePoint" />
            <mxPoint x="1366.31" y="-431.25" as="targetPoint" />
            <Array as="points">
              <mxPoint x="1366.31" y="-501.25" />
            </Array>
          </mxGeometry>
        </mxCell>
      </root>
    </mxGraphModel>
  </diagram>
</mxfile>
